<mxfile host="65bd71144e">
    <diagram id="v0W0nPgdYANemyjWgoA8" name="Page-1">
        <mxGraphModel dx="828" dy="459" grid="1" gridSize="10" guides="1" tooltips="1" connect="1" arrows="1" fold="1" page="1" pageScale="1" pageWidth="850" pageHeight="1100" math="0" shadow="0">
            <root>
                <mxCell id="0"/>
                <mxCell id="1" parent="0"/>
                <mxCell id="14" value="" style="shape=image;verticalLabelPosition=bottom;labelBackgroundColor=#ffffff;verticalAlign=top;aspect=fixed;imageAspect=0;image=data:image/png,iVBORw0KGgoAAAANSUhEUgAAA6wAAAMvCAYAAADWH10yAAAAAXNSR0IArs4c6QAAAARnQU1BAACxjwv8YQUAAAAgY0hSTQAAeiYAAICEAAD6AAAAgOgAAHUwAADqYAAAOpgAABdwnLpRPAAAAAlwSFlzAAAXEQAAFxEByibzPwAA2UhJREFUeF7tnQeYJFUVtn/ykpecYYlLZskZFgXJsIIEJWcRQYLkHFRAwpJFREGQnKMEQUAQEJWkYkAEc0AUIyrWf97+++5fjDM9YXtqbne993nOM91TVfee+9apvvXVDfV//o9JAhKQgAQkIAEJSEACEpCABCQgAQlIQAISkIAEJCABCUhAAhKQgAQkIAEJSEACEpCABCQgAQlIQAISkIAEJCABCUhAAhKQgAQkIAEJSEACEpCABCQgAQlIQAISkIAEJCABCUhAAhKQgAQkIAEJSEACEpCABCQgAQlIQAISkIAEJCABCUhAAhKQgAQkIAEJSEACEpCABCQgAQlIQAISkIAEJCABCUhAAhKQgAQkIAEJSEACEpCABCQgAQlIQAISkIAEJCABCUhAAhKQgAQkIAEJSEACEpCABCQgAQlkQ2Du8GT+sHk1GRgDtYuB+ZrX/wLxV5OBMWAMGAPGgDFgDBgDecYAem3BsJmyUZEVOrLUQgst9OhUU031wyhTk4ExUL8Y+HFc+z/RZGAMGAPGgDFgDBgDxkC2McD92oNh61SoE7MpauVpp53294cddlhx5ZVXFp///Oc1GRgDXR4DV111VXHGGWcU88wzz7/il+gLYR8K2yFsR00GxoAxYAwYA8aAMWAMZBUD28T5OC/sqbCtslGRFTqyWpT1xn333Ve8++67xX/+8x9NBsZAl8fAf//73+KVV14pll566V/H9b9Xhb83FiUBCUhAAhKQgAQkMHgC28ch94dtOfhDO/+IVRGsDz30UGGSgATqQ+DVV19NgnWfzv8ZswYSkIAEJCABCUigqwnsFLV7oNaC9YEHHqjPnbo1lYAEih/96EdJsO7b1T/vVk4CEpCABCQgAQl0PoGdFawKViWMBGpFQMHa+S2XNZCABCQgAQlIoDYEFKz2sNZKq1hZCdjDWpv2zYpKQAISkIAEJNAFBBSsSbD+4x//KM4888xi5513Lp544omuvq1n4Zmbb7652HDDDYsvfelLjYWGqkj//Oc/i7vvvrvYb7/9irXWWqtYZ511iv3337+4//77C/ibiuKFF14odtttt2LNNdcsVl999WKNNdYoPvjBDxbnnntu8ZOf/OQ9iN55552CVW/Z9sc//rEr8H3ve99rxMfRRx9dvPXWW8NSJ3tYu6DpsgoSkIAEJCABCdSFgIK1LFjPOuushlgYimBl8SZel/HSSy8Ny0325GT65JNPFscdd1zx/PPPN7JBoN5+++0NIfTFL36x+Pe//z052Q/o2LfffruA70477VRccMEFxdVXX90QW/xv0003LS655JLir3/964Dy6uadvvrVrxYrrLBCccwxxzQeJmCXX355cfDBBxdbbbVVcd111xX/+te/Ggg4b8TvLbfcUsC3k9Nf/vKX4gtf+EKxyy67NOq/9dZbF7/+9a+HpUoK1rq0b9ZTAhKQgAQkIIEuIKBgTYKVXkcE05/+9KeCnqvBJnqENthgg+Jb3/rWYA8d9v1PPfXUYqGFFiq+8Y1vTCqL3k5Ewt/+9reCug93QixvttlmjXfeUnZKMD/vvPOKk046qfjZz3423G5knz/x+P73v7/4zne+8x5fX3vttQanTTbZpCFSqzhnVcLiQQ8PMu68887ik5/8ZLHrrrsqWLughbEKEpCABCQgAQlIYDIJKFiTYEVEXXrppcXHP/7xSaLz2WefLT784Q83en4Yjolg2GabbRq9Xz/84Q8b9/P01uyxxx7FvPPOW8w666zFuHHjis997nOThtl+/etfL/bZZ59i/PjxxQEHHFB885vfnKQDGPJ4wgknFB/72Mca/yd/vv/yl79s7PPTn/60OPvssxtCb/PNNy/OP//84o033niPjkBwcpO/++67FxtttFFx1FFHTfIfAfiJT3yimG+++Yqpp566McT04osvbgy/5f2zO+64Y2NocHlI8He/+91Gbyxlbr/99o39f/Ob30wqkzypP73JfP7yl7/c2I86IIh5p21viW30mjHktWdCtFKvcg/rD37wg+LEE08s1l9//eJDH/pQw8+///3v7zmU3siPfOQjjR5a/Hzqqaca5+q5555r7Mffz372swXnMSUeRtC7+5WvfGVSTyX1Jy969zhPhx56aPHtb3970jG/+tWvGvs/+OCDxWOPPdYYNg5r4uXPf/7zpP3Ih5528mG4M7FUfkjAji+++GJx2GGHNY6nN/+uu+56D3/i8X3ve9974iQVwMMUelrxj8+UR+8qPbB8J/3hD39osKA3NvnQ8yEKvbH4vsUWWzR8ePTRRxvDsuHy+9//vhEfF154YYMJPbw8TODdpST+nnbaaQ3/8ZPPiOmUuC7oOafe/OXcMOwbQcqwZWIcQU4dOMcpcS387ne/a3xlaD7n1R7Wyfx593AJSEACEpCABCTQ+QQUrEmwIpYQGoi7W2+9tXHjzA37zDPP3Lj5P+SQQxrDWRdccMFiqqmmasyzQ1hyU33yyScXc845ZzHHHHM0brQ5DgHM8M1VV1210fN60EEHNW7UudG/9957G/lzk85NP2UibhC72267bcF7In/84x8XEyZMKBZZZJFGb9N2221XLLDAAg2BkURr6p1caqmlGmIUcTB27NjGvEeEE+KDm//FF1+8UQ/qx1BgBMk555xTRPwWxx9/fKO3DvFz2223NfJZfvnlGwIZv5dYYomGGEaYJ8GCiEQMHXvssQ1/ll122YYgZk5sGnY8SYk0P1AfBCusygK45358R7zjK75de+21DXGFuP785z/f6BEmUT/8QlzfdNNNDd85RwhthCWJ+bJwu+OOOyYVw/FHHHFE4ziG1lJvevYQ3RdddFFx/fXXN8pFZKWh4QhzviPwEOiIzNNPP70hpPGNhFBHVPM/RDLi7zOf+Uyx1157Fffcc88knxmGjdinHOae7rnnng0xnHpMk2BFfPeWEKic5+9///uNkQDw5IHIb3/728awYB544CvCHV/p+cenJFo5ZuLEiY2Y4gEIbC677LLGPhz385//vDHUmDyJPx4aXHPNNY1Y4qHN3nvv3XgIwv+oI/U78sgjJ4lWHhJwHP/nnHD+dthhh8Z1gZC+4YYbGkIWDr3NU4UjIljB2vmtizWQgAQkIAEJSEACbSCgYE2CFSGDCEXwIUhI9KYhGBGE3GzTS0TPJAKNIbbpWATNaqut1vh/6mV8+eWXG8JxueWWK+hlRQQ8/fTTjfl53NDTE4aoRYiNGjWqIb4ol0Vn8OXhhx9u3OjTu0XPE4KR3r/ZZputIcSSfyuttFJjgR58RWzg5wwzzNAQnAhixC29wghtRF4SafSgUS7iiYQYQezRU4wQ4Th6wA488MBiuumma+zHsa+//nrxgQ98oJhrrrka4giBSr0Qo9NOO21D/KU5lmXBhVCiF496rrfeeg3xT29bT4FLLyoCiN7ocs8dogoRS88nIvPwww9v9DYm8UuZCMQtt9yy0WNI4sEBgjo9IOB/5I/fCE5EIucUcYSwTwnx99GPfrTRE4rf9LAi5tgPxiR8OOWUUxrCjn34Pw8dEHhpTjAPFBDfiHUEHz3TxFjqDSUPzgOiOj2EQGzzEKMvwcp8ZOKAmEoLhcGBGMEPyku9//hJLz1CG34wohweitArmxIxR4zsu+++jbqSEP/EJr3TqT70kD7++OPv6eWHLcfyIIREDzL580Ag9YjzAGjjjTdu1DUNt0dQI2q5TsoJJgrWNvy0m4UEJCABCUhAAhLoDgIK1laCFVGAMKWnMYkneoAY/kpvJz1YJMQCohFxmuYe0hNGryuild40xCI39WuvvXZjv2eeeaZx807PFgKzLCDIE0GbhganG3p6tmaaaaZGzy1iiwWL+E5PZ0pJ7CJ4ETT4Rm8W9Ug9htQhCdZPfepTk3pX8ZeexvLqrOSz8MILNwQw/iDOmUeJiEe8pIRQxhd6zVqt+ItARBAjShB41J9h14888kgjq1/84hcNH+BXTghTRC4s02fEcXkuJ+IJQQxrUivBigDnWHo3Eac9V+DFR3ohEeiIOEQ05aXEsVdccUVDWCNMYcvQ8FSP9zgfXxDa9Kam3t+0nZ5Szk86rj/BStzQU/+1r33tPYIVkd1XQqBzvokNzhkCsyyIqQsCk1EAKeaIcRgxz7lVQsQidBk6TGJIOeK+3KvNAwQ44XNKXAuI/XIMsa0KwUoMx4OjX8dv+H7d8TtuLSQgAQlIQAISkEDXElCw9idY6ZmkpzMJAnqbEIiLLrropJt0hgUjTOlhTUMvGTJJbyU9kQgMerkYyrnyyis3hgVzE08PK2JlnnnmaYirckJUsg83//RO0euG6GT48I033tgYgsriNAzrTeKrN2GBAKFHl2MR4KSyYP30pz/d6HljMaQpp5yyISLKK87SY0cvLr2i9Nwh3OmJZVgwPXMpIfCYw8sc2oG8ogaOiER6rOkhpPeS+a30RjKMesUVV2zUG3YYQ5A5FwwnZcg0vZKsLFxO9PQiutI57Uuw0guahDqrJDMEmvxTWfxdcskli3XXXbdRZwQrw4QZkpwSwgrBSnmIOsQycdJXzygcyY+6lcuhZ54HAqmHErHdVw8rwpI6sZ2eTx540KuceljxjZ5c/ES4Uw69sYsttlhj+C/xBm/Ylef1chzHIMpTTy+CFb49zyW97syrRvSSP3FAHdIweh7Y8GCF3vSUEOH02NI7nBIPJOj97inwqxCsDN2OhytvxbWzQ9f+tFsxCUhAAhKQgAQk0B0EFKwDEazc4KcFYBB39CIiWBFPpN4EKz13zGnlhp6bc4QIN+cIWoQevZgIQwQrwrZ8g48QQUAipBC39EYiTBBVCOAkWPGDuaOIr77SQAUrPWTTTDNNoxewvJAQIgPxiEhieGkSrPiSFlBCSHE8grW/Htbe/ESkIuYR+fQ4UhbCmfmhiCaMhazgyNBbfOCcpPmjKU8EPkNuUw8rTHsOCUZcMoeV4bwIdzjTY8z3VBZ/GbKK0KL3lF5WeiDxoSxYEXkIO/JESNID3HORpbQ/ghWhj5grl0PPOvVKQ3Fb9bASe8w/pUea85qGQSMG6UknD4Yx8yCDIcCUw/70jtPDivhEWPcmWJm/C5c05Jl6wbcsWKlDGvYMC/In9sifuakkBCsCujwMmzrxvzIb6oyoTsO3y1yHc0gw1/vSSy/9n/j9viRs7u74HbcWEpCABCQgAQlIoGsJKFjbJVhZrIj5qek9rAgYek6Z7/nmm29OEjqIXIQAAoM5fkmw0vOVEgKYHqzpp5++MQSWhLhCqMwyyyyTerMYhstiSoi09KoYRAuiEWHE0FmMOYXMxaUHkoTALA8JJm+G/o4ZM6YhFstDkSmfebOUjchGLCIuByNYEeCIbKy3+a0IYfJkiDV1R2SykFJfCXb0ZjIkuvwOWQQvQ4zT0FOEKwK83HvNsQzdTcOoGbpKL2l5xdqe5eJfK8HKeWSxobTQUG9+M1eT+cBpAaa+6tZqlWAeECCuOXfUG6OHnHMNN/Jme0/RTHwwnBnxSQwgMMs9m5wTVu3Fv/KQ4HIPKz2f9DKz6FJagIs68LCB3nEe0LRDsBKLzC8mz/4W5+ozQPrY0BSr/26K1Xm79mfdiklAAhKQgAQkIIHuIaBgbYdgRSQyN3X06NGNHieEBcNW6XFjXidih54nFhliSC+9hyy800qwMox3iimmaAyx5bU15MuwY0QwwgHxyIJFzJ2lJxcRg0BDeHAciw/RU4qQQbDOOOOMjQWc6OGl15AeNRZdQhyQEHLMRcRfeunoFUOsIkxnn332Ru8nYiKJy8EIVoQVPbD4CoPUm0i5DAumNw8ByoI9CCNWz0W0Mh8yJXp66TVkf/KjFw5xml4/g19wZZgqC1CR6MlOq/bynbypB+cqLbpEjyLHMRw2LRKEwEaAscItdW7Vw4rIgyfngwcF9BomoYW457zQ00svLENpqSf5pcQwbcRkeqVLeg9r+VU0zD2lR5KHCcyrTe+rxU8EKz2sSbAyBDgdS5mpB5lVoUkMGaaHNS2ixf841yyaRV3Suek5JBgOxB3iN+3DuaAHl+Hi6cEK52xyeljxhzpx/pnH3a4E1xiyT8/qFWGK1e5pxKyJBCQgAQlIQALdTUDBWn6tDb06CMK04A8CEKFHr1XqeaI3ihtyxGlaKAmhw5BSFk9CBHJjT68qvWrkyQJNzIlkiC9CIM39ROQwT5NVeBGlKVEGcwLZn2G6zBHkJh7Rx6tjeNUMAgHhhhhifizzIOeee+5imWWWaZSRenrxDVFBzyx5pd44RGHEdkNMp/ew4i/HMheX+aL4jTClnmmYMD1qaeGotMAUPbYMESU/2PR8Xyr1YnEe8qEXkkWVYMoQWVaiZUGetJIy+7LwEq+GYV/ENsIfocTxaS4xYonhqQy5Jj/4I0I5ht5iUnq3LmXRg4sQx8+0+nJasZay2UYvMuVxzvhOrzd1QwzzIACOKaUVfhGo1I2UhsOSB3Ujv/J7cfGZ19DQ64topO6IRIYfJ76IR+acMteZ2MA4vzzAYMhuuSeYHlPm49LrCRfEKPvQq49QP/XUUxtxBUseFsCHfVhlmjoigCmfebwszISvaUgwvdDESPlc0ovMnGoWIUM4s53ebM4585x5GEDvLvukOblwYXgwPqY51PyPhcNgkM4VfznPPHCYf/75Gw9OEMLUOw03Hqp4pYc9YvrdiM+rwhbo7t90aycBCUhAAhKQgAS6ioCCNQlWxB8rvbIgS+oBo9cKYcjNdLpxp6eJBWsY3loeGkmvEzfpCCJ6A5MYQgAwvJWeNkRoeZgj+5A3vXlJKKSb8vSKEuZJcjw9cIgn5hFys5/mj7I/IpI8KANxkHrrUl6IFF6Zg2+IBurCXFEEMD1i1CklerUQwQxbRsik18ik7cy7RQAgespDnWHBkF7YJAHcm8CgV5j9EFEIHjiWX1+TjkEEMsSV/agXQ1jpySwnBCA9iAhJVptFLPG6m/IQYHqyYUJZcOQ80ZNLvct+wpD60gtKnuUFpagzvZZlsci5eOWVVxrnOg3HxjfELVzJh7qVe1PZDl8eiNDjyZBbYi7FCtuJOfykJ5o8MPZDGPZcsRf/4clCT2muKeWxABZM0vuAOf+IScQreXC+WW2YffCVBwScb3qI06JL1IsY6XkuKY/eeQwm5MVoAmKLc0B8k3fKJz2AwMdy7HPO6QlPc8MpCx+oL3nzmXOPj+Q31MT1HatyJ7G6SFf9fFsZCUhAAhKQgAQk0P0EFKxJsA71htjj8iFAD2B5leB8PMvHE4QtD0Fuu+22SU7xgIPeTUR9z4cC+Xg+eE+4tmOUwn/jd/wrYQt3/++5NZSABCQgAQlIQAJdR0DBqmAdvBDI9Qh68RhuS++vqXcC9OYyioCh0wwb3nnnnRvMWISKV/h0SyqJ1eviZ3uxrvvptkISkIAEJCABCUigHgQUrArWbpEoRWPIKUOeew7D7Z4atq8mDLNl2DGLVzGEuLwydPtKGZmcuKZjxW56Vq9XrNajJbOWEpCABCQgAQl0LQEFq4J1ZESFpUpgOAiUxKo9q13bblkxCUhAAhKQgARqREDBqmAdDtlgnhKongCreq+44oqsVn1T2OI1+iG3qhKQgAQkIAEJSKBbCShYFazVCwtLlEC7CXAdN8XqzfFrvWS3/mJbLwlIQAISkIAEJFAzAgpWXq1hkoAEOpcAYpX3wMaP9y1hS9XsR9zqSkACEpCABCQggW4moGC94IILGu95xJ5++mlNBsZAB8QA1yvv/L322mvLYnVsN/9aWzcJSEACEpCABCRQQwK1FqyrxAl/Y+zYsf9cc80139JkYAx0VgystdZaby+44IK/j+uYOav2rNawBbPKEpCABCQgAQl0PYFaC1ZucF8LuyRs17DdNBkYAx0VA3vE+fpw2BJd/1NtBSUgAQlIQAISkEA9CdRasC4U5/zVsA/U89xbawlIQAISkIAEJCABCUhAAlkTqLVgXbgpWD+Y9SnSOQlIQAISkIAEJCABCUhAAvUkoGCN865grWfwW2sJSEACEpCABCQgAQlIIG8CClYFa94RqncSkIAEJCABCUhAAhKQQG0JKFgVrLUNfisuAQlIQAISkIAEJCABCeRNQMGqYM07QvVOAhKQgAQkIAEJSEACEqgtAQWrgrW2wW/FJSABCUhAAhKQgAQkIIG8CShYFax5R6jeSUACEpCABCQgAQlIQAK1JaBgVbDWNvituAQkIAEJSEACEpCABCSQNwEFq4I17wjVOwlIQAISkIAEJCABCUigtgQUrArW2ga/FZeABCQgAQlIQAISkIAE8iagYFWw5h2heicBCUhAAhKQgAQkIAEJ1JaAglXBWtvgt+ISkIAEJCABCUhAAhKQQN4EFKwK1rZF6JSR04Jhc4fNqWXHYKE4J9O07WybkQQkIAEJ5E5gvnBwXtvjSttj7oOmzT0w9E8CHUZAwapgbVvITh057TnDDDNcHH8vC7tEy4PBqFGjLp166qkPifMxS9vOthlJQAISkEDuBD4YbfIF4eTnbI+Hvz2eZpppLou29pjmA4LcY0P/JNBJBBSsCta2xeuUkfZccMEF/7bzzjsXu+++u5YBg912261YYoklimmnnfa4ONPTt+1sm5EEJCABCeROYPM555zzFxMmTLA9rqA9Xn755WlreWA/e+6BoX8S6DACClYFa9tCliHBeyy++OJv/vWvfy1M+RDYYIMN3olzw1NfBWvbwt2MJCABCWRPYPOZZprpJz/4wQ/yaZC62JNdd9313xERjDJTsGZ/aehghxFQsCpY2xaykwTrb3/72y5ukjqrau+++26x3nrrKVjbFuZmJAEJSKBjCDQE63e+853Oarg61NsYXaZg7ZhLQ0c7jICCVcHatpCdJFh/85vfdGhz031u/+c//1Gwti3EzUgCEpBARxFoCNZvf/vb3de4ZVgjBWtHXRs621kEFKwK1rZFrII1wwZUwdq2+DYjCUhAAp1GQMFaYbusYO20y0N/O4iAglXB2rZwVbBW2DAOtCgFa9vi24wkIAEJdBoBBetAG8s27Kdg7bTLQ387iICCVcHatnBVsLahwWt3FgrWtsW3GUlAAhLoNAIK1nY3qi3yU7B22uWhvx1EQMGqYG1buCpYK2wYB1pUSbAeHWfal5m3LdzNSAISkED2BBSsA20s27BfU7BeFFExa/aRoYMS6CwCClYFa9siVsHahgav3VkkwRrvhjvpoIMOmuO5556b4YEHHpixp913333TRdlTtC0azEgCEpCABEaagIK13Y1qPz2sU0011eUbbrjhgn21tY8++uiok08+mfslkwQkMHACClYF68CjpZ89hyxYf//73xfPP/988eyzzxZPP/30JOP7j370o8L3ug69xUWwrr/++u/MO++8F33xi19c54c//OFKTzzxxKpl+8Y3vrHaN7/5zTHRkE7dtmgwIwlIQAISGGkCkyVY33777eKVV14pon0onnzyyeKll14q/vCHPwy9QeryIz/84Q//Z+65577pU5/61Eavvvrqir21tY8//vhSPCAe6cCwfAl0GAEFq4K1bSE7ZMF6xRVXFLPOOmsRnrzHppxyymKJJZYoTjrppOK1114r/vvf/2bX3P3jH/8oXn/99SLXd8+WBOuFX/jCF9aOm48VH3vssVXKRqMaNyOLKFjbdi2YkQQkIIEcCAxJsNLW/uQnPymOP/74YsUVVyxmn332Il6PUyy88MLFXnvtVYToKt555522t8dvvfVW8dOf/rRjH1I3BeuNp59++vjgt0Jvbe3Xv/71JRWsOVwa+tBhBBSsCta2heyQBWsIqWL06NHFoosuWuy+++7FRz/60eKAAw4o9txzz2Ls2LHFFFNM0fhfjqIwhv0U22+/fXHZZZe1vfFuR4YK1rbFtxlJQAIS6DQCQxKsv/rVrxptMe3yVlttVUycOLG4+OKLiwkTJhTTTTddseaaaxbf+ta32tFEvScPyth4442LF198se15V5GhgrXTLg/97SACClYFa9vCdbIF66677vo/w43iCWUxZsyYYskllyxi6OqkNudf//pX8bOf/axAMDJM6U9/+lOv7dHvfve7RuP33e9+t/jlL39ZIOBS4pgf//jHBfsw9Iknuwx3+uc//9l4uozxOaU333yziCG1BUOY//3vfzfKP/XUU4ulllqqOPLII4vvf//7k546Uw49r7ywnfJ7DqOiPIY7/+IXvyjefffdRhH8xccf/OAHxZ///OfG/3jiTL4cz//w949//OOAe5sVrG2LbzOSgAQk0GkEhiRYY42DYsEFFyxiLmajXUyJh8b0uu64447F1772tUa7SXvFPrTJKdH7GkNiG8OJ//KXvzT+TZv585//vPjOd77zP+0x+zAFaMsttywWWGCB4tprr220hSnRjtHe0p7S3tMWp0RvMG04ftCm//3vf2+001gqm2lFbOd/qW0t3zBwDG0r9xP4PNRpSArWTrs89LeDCChYFaxtC9fJFqx77LHH/zQUNHrLLrtssdBCCxWIVxKNCb2yMTeziLmZjV7YQw89tNEgpWHDNHCPPPJIscsuuxTzzTdfMeeccxabbrppcdNNNxUM4yXdfPPNxbhx44pPfvKTxWc/+9li5ZVXbvSUfu973ytWXXXVYpVVVmmIxSQmL7zwwsaQqDPPPLPRYB511FGNYVJBsPEkeuutty54Mk3+lLPRRhs1/EbQHnjggY2GNqV77rmn4TfDq1IDSuNPTzLDr2699dZGXb7yla808uYm4dOf/nSx3HLLFV/60pfeI7zLDW/PzwrWtsW3GUlAAhLoNAJDEqz3339/o21db731GgKzr+k4Tz31VLH00ksXq622WvHCCy9Man54QEzbynBiPiMIb7zxxmLzzTcvFllkkYbRc3vDDTc0Hgpz7GabbVbE4oDF1FNP3XhIfc455zTy49jrr7++GD9+/KT2NBYQnNQ2I4TPPvvsRjt53nnnFbFWQ6Nc2vxTTjml8eCZtpt2eLbZZmu02zx0TunXv/518ZnPfKZYffXVG/cKtPunnXbaewRzqza2vE3B2mmXh/52EAEFq4K1beE62YJ1u+22a4g6RB/G09gLLrig0RAxTIino/RCIirnmWeexlDchx9+uGAOLD2w++yzT/Gb3/ym0X4wXGmdddZp/J9Gi4Zs+eWXbzTCNJI0wHfffXdDmL7vfe8r6N0lv69+9asNHxCvNLiI17Jg5akzjRlPk9nGcaNGjWr0sHIcYvq6665rDG/eZpttChp+BCZDqKgf9SIhWPGNYc9lwcpQaOp7yy23NPZDuM4444zFFlts0XiqjcDFx3JPsYK1bTFsRhKQgAS6icCQBCujf97//vc3HsYiFD//+c832tQ33nij+Nvf/japyaHt2nvvvRsCFEGaEm0sD3dpzxCktIM8bOWhMe3XXXfd1XjgzBoVtOGITtpjxCJi9aqrrmr0qNLOffnLX27kz3Bkjr3yyisb4vJDH/rQpGlCCFLa4R122KE44ogjGg+w55prrsbaGPvvv3/jQfDhhx/eaP9pX2+//faGq9SFh8E8JD7kkEMaD7ljwaRi8cUXL2Il30H3tCpYu+nSsS6ZEVCwKljbFpJDFqw0QHPMMUejIVlppZUaT2tpkNJiDzR0PGGl8WKYEAKTho4GjiE/9HYefPDBjeNoGNkPkUqDReOThirRiCJQaYjYh2FPNKo8eeVzeorMEF4aTvYt97BedNFFjYYTwUoij+OOO66YYYYZissvv7zxP/xD+PJ0l/Lwj+G87Ecdb7vttsZ+sehC48k0jX1ZsNITy34IVdIdd9zReOKMeGZI9GAXnrKHtW3xbUYSkIAEOo3AkAQrbQ/icIMNNihi1duGGES88iD2sMMOK5555plJ01+uvvrqRjuKSESc8lD56KOPbog+RgiRLrnkksYQY/5Pe41AjUX+GoKW0UgkhhUzKol2kV5dEg+tt91224YP7Ed7Su8ovaS079wDkC699NLGWhdJxPLgmH3w+YMf/GDjQTYjn1J7TY8sbSm9v7T19CQz3Jj8GdX1kY98pPG/cq/xJDXe4oOCtdMuD/3tIAIKVgVr28J1sgUrPYk0fDxhZWhOvM+sWGONNYpYVW9SE0FDyVBaGqv99tuvsYLwiSee2OiB5Dh6W5nPwtNYhv8w7LecEHCpdxLRyBNXhiaV55gORrAee+yxDcHKE2jSyy+/3HhyPPPMMzfEKP6dcMIJDX9osFNDOVDBisAl/3333bfPebqtGlIFa9vi24wkIAEJdBqBIQtW2hUepj700EONEURrr712Y2QTiy7xYJn/k5jzyQiiddddt9ErSltK7yxCkPaQxANhRjjRljHyiEWcYnX6Rlud2mOEIr25ZcHK6+4ol55SRlDRntIjSh60p+eff37jeBZrwi8eVKfESCyENsIVEY0x0or7DPJAXDPSieMY7YTg5l7imGOOmTTdiHZ6MEnB2mmXh/52EAEFq4K1beE6ZMGaVgmOH/vGkFl6RJmPSk8qc0DT8FgaDt7TSoOGIKTRYt7rbrvt1hCHiDoaRvL4wAc+UMwyyyyTeip7a3SSYKVHtLwQQxKs9NjiB4mnsTSK5R5WnhInwZp6WBkWzFNpGmaEMCstYgz9pfeUYVM0nPfee2+jHjTCzF0l8fdjH/vYe3pYEazMk2W4UlpAYjANqIK1bfFtRhKQgAQ6jcBkCdbU1tD+0ZYgIGmneZhMbyltNe0gopBRQIhY3tfKZ9qyNHyYNo/RQizixKJKjECiDWeaDD2bJOaaJsGa/kcPKFN7EJk921Py596A8hn9hDg944wzJo1CYuTW9NNP3xCn+M5+5557buN/rFuBb/TQMm+WB+QMJ07tNVNvGEbMMOjBjGpSsHba5aG/HURAwapgbVu4TrZgRXiyKm5KDCNCdDIkiCe3JBowhB7DhWlM0pNThhkxfIihQHxmGBBDjBmWmxIrFzIHh+FBHJcWlqDRLK8yjGBlDitPkdMTYvanMaShjXesNbIsC1ZEN4mnzTxppqeYnmGOo7GkXpSdxCmClaHIzIFN/2P1XxaJKg8JToKVIc9pPwVr22LWjCQgAQl0M4FBC1YEGu0hixGx4FHPxDBfHqLysDVt5+HvWmut1ZiCQ68nbWAa6ksbyANhel4Riayej3hlTQZEKw9yaUt51zqCdZlllpk0FJf2l95bRk/x7tfe2lP+l+aw0jYngZkEK8OAexOs3CvwgJvRWozQon0mL3yh5zctoDiY9lbB2s2XknUbYQIKVgVr20JwsgUrYo2GIiVE6iabbNIYDoQgpCFi/go9qwzlpeGkIaIxZNVAFnT45je/2diPhotezo9//OOTGkqG7SI4eXpKQ8vTYPLpKVjTk16E4zXXXNNovGk4KZensazWmwQrw4f4H400edLI0+uL0GZIEo0fYpV5s/S8Pvjgg41jGQ5Fw7zCCis0fKYOLPiAUGYBiDTXVcHatvg0IwlIQAJ1IzBowUqvKQ+LeWBLzymve+EhMA9UmWeKwKSXkuG56bVvvJ6N9pd5n7STtKkskkiiXWTFX6bF8CocEsKQ9o71KRCLCFkEK20k61MgTsmb9pT7Ah4+M4qJ9hRfmGZDb22aLpR6WAcqWFmYCb9Yo4IpPPjBWwi4d6COO+20U2PkFotPDSYpWOt2eVnfCgkoWBWsbQu3IQtWGiKG8/DElfe8lRPbeApLQ4ZopEFhWC2NGmKPBopFIOjRRLSm41ksgQZt/vnnbzwJZn4K+yMS0ytj6OVML0Yv9+zSkDEXBiHKwhEIUIQvDTJDlBGfSbDyOhyGRzE/h/mpiF1EKWUx15ZGnfk/vJoHoZxWCWZxJhpEFlRicSfy5zsNPk+v09xb/rIPw5PsYW1brJqRBCQggToQGLRgpW1j5V4WPuShL/M7aX9pT2nTaI9ZHIkHreVELydTZlg7gnYvvT6ONju9Qo5pPkyt4QE0CyQhFPnOPvRwMjKK9o73sTI6CiFL7y37MbKKthexSTvOFKD0ehoeGMfJbGxPPaw8oGYhJkR36mE966yzGv9jxBL+Ic6Z10ovK727tOG098zV5VU35RWRByJcFax1uKSs4wgRULAqWNsWekMWrPSUMjyWOSnlxY9oIBg+xNPOxRZbrLG8fRoCjNjkKS4CkiFDzE1JYpDjaLQY2otYpKFjdUMEYxpWxD487UVYllfqTY0ST1kRwgxFopeX4cMshU+Dm94Px76I6PSuV/zkVTeUzZNf5sQgeJkLy8rCDFlOiX14UTrzZ6kbPrAKMI0njTGLQZCoJ9sZ1uQc1rbFqhlJQAISqAOBIQlW2ll6H1mEiOG9LHCEiGMBJIb98mC259xO3smKoGU+aFq9N7V39JbyP9pEHjZj9Liy+n8aVkzvKSOKEMo8gGYKDoIRX2irU1vJdnygVzf11iKAOYb2M/nF6+UQ0IyISoKVUU/8D2GbxCijm7i3oJ0nD94Hy3Di8roWAxGr7KNgrcMlZR1HiICCVcHattAbsmDlKSdijCeevS1wwP9pPNLwo9R40NDRM0rPY1/vJSVvjmVYb3rim46ngaRc8umtXI4lb/ZJQplGrqcffKcM5sSU/Uj+sS29Wqdnw4dPlFFutCkP31IvLt8pYzCLP6RyXHSpbfFtRhKQgAQ6jcCQBGu5jaRdS21ozzYutVG0X4x8QtTSO8oIop6J9iu1iQwvpi3t2abRzlJGaq/L28vtaWofUxmsT0E7yt+UUvtdbq/Tfj3bU8qhXPziL34MJSlYO+3y0N8OIqBgVbC2LVyHLFiH0jB4zMAIKFjbFt9mJAEJSKDTCEyWYO2vlUEAMgqI0VGMRsIQrnVNCtZOuzz0t4MIKFgVrG0LVwVrhq20grVt8W1GEpCABDqNwLAKVnoqmevJkGHemc4w3J4jkDJsFofNJQVrp10e+ttBBBSsCta2hauCddiawaFnrGBtW3ybkQQkIIFOIzCsgpWhtExZYXV/hvEOdSjt0Fu4vI5UsHba5aG/HURAwapgbVu4Kljzajsb3ihY2xbfZiQBCUig0wgMq2DNsMkbUZcUrJ12eehvBxFQsCpY2xauCtYRbSp7L1zB2rb4NiMJSEACnUZAwVphu6xg7bTLQ387iICCVcHatnBVsFbYMA60KAVr2+LbjCQgAQl0GgEF60Abyzbsp2DttMtDfzuIgIJVwdq2cFWwtqHBa3cWCta2xbcZSUACEug0AgrWdjeqLfJTsHba5aG/HURAwapgbVu4KlgrbBgHWpSCtW3xbUYSkIAEOo2AgnWgjWUb9lOwdtrlob8dREDBqmBtW7gqWNvQ4LU7CwVr2+LbjCQgAQl0GgEFa7sbVXtYO+0a0N/uIKBgVbC2LZIVrBU2jAMtSsHatvg2IwlIQAKdRkDBOtDGsg372cPaaZeH/nYQAQWrgrVt4apgbUOD1+4sFKxti28zkoAEJNBpBBSs7W5U7WHttGtAf7uDgIJVwdq2SFawVtgwDrQoBWvb4tuMJCABCXQaAQXrQBvLNuxnD2unXR7620EEFKwK1raFq4K1DQ1eu7NQsLYtvs1IAhKQQKcRULC2u1G1h7XTrgH97Q4CClYFa9siWcFaYcM40KIUrG2LbzOSgAQk0GkEFKwDbSzbsJ89rJ12eehvBxFQsCpY2xauCtY2NHjtzkLB2rb4NiMJSEACnUZAwdruRtUe1k67BvS3OwgoWBWsbYtkBWuFDeNAi1Kwti2+zUgCEpBApxFQsA60sWzDfvawdtrlob8dREDBqmBtW7gqWNvQ4LU7CwVr2+LbjCQgAQl0GgEFa7sbVXtYO+0a0N/uIKBgVbC2LZIVrBU2jAMtSsHatvg2IwlIQAKdRkDBOtDGsg372cPaaZeH/nYQAQWrgrVt4apgbUOD1+4sFKxti28zkoAEJNBpBBSs7W5U7WHttGtAf7uDgIJVwdq2SFawVtgwDrQoBWvb4tuMJCABCXQaAQXrQBvLNuxnD2unXR7620EEFKwK1raFq4K1DQ1eu7NQsLYtvs1IAhKQQKcRULC2u1G1h7XTrgH97Q4CClYFa9siWcFaYcM40KIUrG2LbzOSgAQk0GkEFKwDbSzbsJ89rJ12eehvBxFQsCpY2xauCtY2NHjtzkLB2rb4NiMJSEACnUZAwdruRtUe1k67BvS3OwgoWBWsbYtkBWuFDeNAi3r33XeL9ddf/5155533wi984Qtrv/LKKys+9thjq5TtiSeeWPXJJ59c5NFHH526bdFgRhKQgAQkMNIEFKwDbSzbsJ89rCMd7pbfxQQUrArWtoX3JMH6pz/9qQ0//WbRLgIbbLCBgrVtYW5GEpCABDqGQEOwvvzyy+1qTsynBYFddtnlP3PPPfeNp59++vif/OQnK/T2cPjrX//6kvfdd990HRNBOiqBPAgoWBWsbYvEhmBdaKGF3j777LOLyy67rLjkkkt6tYsvvrjQhp8B/C+66KJihRVWeHeRRRa5yB7WtsW6GUlAAhLoBAKbzzHHHD87/vjji8997nO2ycN075HudT7wgQ8U0dbepGDthEtDHzuMgIJVwdq2kGU46d7TTz/9o3PNNdcz88033zdjGGqvtuiiiz4/ZsyYl8JezNheWmyxxZ5fYoklvhV/v9MB/vbF8qV55pnnhSWXXHLi5Zdfvp5DgtsW72YkAQlIIHcC244aNeq+ftrkp6J9+25ubVy0uy9E+/tc2Ldz862v+5aFF174xbDrTj755I3tYc390tC/DiOgYFWwti1kp4icFgpbPmyF5l8+/4+NHz9+20g7bbHFFjvmahMmTNhu9dVXPzCeTl8ZDdCntttuuwm5+tqfXzvssMOOhxxyyFZ33XXX6jFXdWXnsLYt5s1IAhKQQM4E5g3nluuvTV5zzTU332abbXbury2pajvt71prrbXv7LPPfvkCCyxwzgcjVVX25JSz/fbb77j33ntvf8MNN6z1zDPPjHNIcM6Xhr51GAEFq4K1+pCNKSBj3nnnneX++c9/LpOr/fe//130oIMO2iYazHuWW265T8f3hXL1dSB+vfHGG8v3JlZpUF10qfprwBIlIAEJ5EIg2rf5ok1efiBtSRX7xD3CYqeeeuomMR/0luhpvZh7hrClqyh7csv4wx/+sGyrttY5rLlEvX50GAEFq4K1+pB9/PHHl/3GN76xWs+njzl9f/vtt5fdeeedPzzrrLM+GUOSLo4Gfamc/GunLwrW6q8BS5SABCSQC4FojxcPkbV6O9uVycnr17/+9XIHHnjghNlmm+3hBRdc8BpEZF8icHLKqfpY2loFay5Rrx8dRkDBqmCtPmQ7QbDSQH7oQx/aJVZYfC7m3F4egnXJqhu3qspTsFZ/DViiBCQggVwI5CZY6aU84IADPjjLLLM8Eeth3EjvqoI1l2jRDwmMCAEFq4K1+sDrBMH60ksvrfTZz352/MYbb/zR3XfffccXX3zxf95fWpWgHO5yFKzVXwOWKAEJSCAXArkJ1u985zsrXXrppetvvvnm++6444670B4PdztYRf72sOYS8frRgQQUrArW6sO2EwTrI488siqNZPSsjmV4Et+raNBGogwFa/XXgCVKQAISyIVAboKV9pZFi9K81W5pfxWsuUS8fnQgAQWrgrX6sI0f7eWYL8OPd8721FNPrfLd73533LPPPrtyzn5Orm/MJ47zscijjz7Kq4lMEpCABCRQIwLR1i0RtsbktiXtPL4b21/aWuew1ujCsqrtJKBgVbC2M54Gllf0sC4VDdtK8cO9Qq4WAm75e+65Z9z555+/dry/dPV42rtcrr5Orl9xPlb85je/Oea5556bZmBn0L0kIAEJSKBbCMTDyjEhpsZNblvSruNT+3vBBResdfHFF6/J93blPZL5NNvaJYP3qG6JHeshgYoIKFgVrBWFWqmY+LGe6aGHHpr16aefniVX+8EPfjDzGmussdLo0aPPmmeeefbie66+Tq5fnAvOSQy/mrL6aLBECUhAAhIYSQLxsHKGaANGT25b0q7jaW833HDDpWOV4NPnnHPOQ7qp/aUu0dZONZLn27Il0IEEFKwK1g4M2+pcHhdFPRR2QnVFWpIEJCABCUig9gSWCAJ3hk2sPQkBSEACClYFq1dBCwKrxLYHFazGiAQkIAEJSKBSAmOjtDsUrJUytzAJ5EpAwapgzTU2s/BryfDi7LBds/BGJyQgAQlIQAL1ILBgVPO0sI/Vo7rWUgISaEFAwapg9QJpQWD62LZY2DxSkoAEJCABCUigMgLTRUmLhs1fWYkWJAEJ5EpAwapgzTU29UsCEpCABCQgAQlIQAISqDkBBauCteaXgNWXgAQkIAEJSEACEpCABHIloGBVsOYam1n4NVt4sWHYsll4oxMSkIAEJCCBehCYOaq5bti4elTXWkpAAi0IKFgVrF4gLQisENuuD/uElCQgAQlIQAISqIwA60d8MezUykq0IAlIIFcCClYFa66xmYVfK4cX94cdm4U3OiEBCUhAAhKoB4Glopq3hJ1bj+paSwlIoAUBBauC1QukBYHVYtvjPuE1RiQgAQlIQAKVEli6+cD4kkpLtTAJSCBHAgpWBWuOcZmNTyynv0/Y+7LxSEckIAEJSEAC3U9gzqjibmFbdX9VraEEJNAPAQWrgtWLRAISkIAEJCABCUhAAhKQQJYEFKwK1iwDU6ckIAEJSEACEpCABCQgAQkoWBWsXgUtCEwZ20aFTSMlCUhAAhKQgAQqIzBFlDRd2LSVlWhBEpBArgQUrArWXGMzC78WCC8OCNs4C290QgISkIAEJFAPAnNFNfcM27Ye1bWWEpBACwIKVgWrF0gLAqvGtq+FnSQlCUhAAhKQgAQqIzA2Sro77MLKSrQgCUggVwIKVgVrrrGZhV+rhBcPhp2QhTc6IQEJSEACEqgHAd7DenvY+fWorrWUgARaEFCwKli9QFoQWCa2XR62v5QkIAEJSEACEqiMwCJR0gVhR1VWogVJQAK5ElCwKlhzjc0s/JolvFgtbPEsvNEJCUhAAhKQQD0IzBDVXDls6XpU11pKQAItCChYFaxeIBKQgAQkIAEJSEACEpCABLIkoGBVsGYZmDolAQlIQAISkIAEJCABCUhAwapg9SpoQWDG2MZwpPmlJAEJSEACEpBAZQR4BzoLLzGX1SQBCdSbgIJVwVrvK6Cf2i8b278Q9lEpSUACEpCABCRQGYExUdLFYcdUVqIFSUACuRJQsCpYc43NLPxiwYf7wo7NwhudkIAEJCABCdSDAL2rt4SdU4/qWksJSKAFAQWrgtULpAWBVWPbo2EnS0kCEpCABCQggcoIjI2S7gm7qLISLUgCEsiVgIJVwZprbGbhF6+zOT1spyy80QkJSEACEpBAPQgsENU8Pmy/elTXWkpAAi0IKFgVrF4gEpCABCQgAQlIQAISkIAEsiSgYFWwZhmYOiUBCUhAAhKQgAQkIAEJSEDBqmD1KmhBYIrYNlXYlFKSgAQkIAEJSKAyAra/laG2IAlkT0DBqmDNPkhH0sG5ovCtw1h8ySQBCUhAAhKQQDUERkcxm4etV01xliIBCWRMQMGqYM04PEfeNV5rc3/YcSPvih5IQAISkIAEakOA19rcGnZubWpsRSUggb4IKFgVrF4dLQisEtseCGOlQpMEJCABCUhAAtUQQLDeFnZeNcVZigQkkDEBBauCNePwHHnXVggXrgs7ZORd0QMJSEACEpBAbQgsFjW9MuyU2tTYikpAAn0RULAqWL06WhCYI7ZtGjZOShKQgAQkIAEJVEZglijp/WFrVlaiBUlAArkSULAqWHONTf2SgAQkIAEJSEACEpCABGpOQMGqYK35JWD1JSABCUhAAhKQgAQkIIFcCShYFay5xmYWfk0TXjAseOYsvNEJCUhAAhKQQD0ITB3VnD1s1npU11pKQAItCChYFaxeIC0IsErhOWG7SUkCEpCABCQggcoILBglnRH28cpKtCAJSCBXAgpWBWuusZmFX+PCi3vDjsnCG52QgAQkIAEJ1IPAklHNm8I+W4/qWksJSKAFAQWrgtULpAUBXmuDYD1aShKQgAQkIAEJVEZg8SjpljBGOZkkIIF6E1CwKlizvgJGhXczhs00QrZGlHtj2JGDLJ85rzOETavJwBgwBowBY8AYGHQMjA1mnw87uUPYTR9+Tpn1HZXOSaBzCShYFaxZRy/vQGUOy8SwC0bALowyLw27eJBlXxT7fyaMuTeHaDIwBowBY8AYMAYGFQOfCF5HhB3eAdzw9YAwFokySUAC7SegYFWwtj+q2pjjLlNOOeUv5pprrv8usMACI2Hvzj///P+Ksv890PJj///OPPPM/51xxhn/vfLKK/9t3LhxmgyMAWPAGDAGjIFBxMAqq6zy12hD/xz2dubt6N8XX3zxf0w99dR3xL3PfG28/zErCUjg/xNQsCpYs74e9grvfn/XXXcVf/3rXzvC3nrrreKwww4r1l577eLvf/+7JgNjwBgwBowBY6CLY+CYY44p4iH1PXG/Mm/Wd1Q6J4HOJaBgVbBmHb0I1t8+8sgjRSelY489tlhvvfU6yWV9lYAEJCABCUhgCAROOukkBOtdCtas7yd1rrMJKFgVrFlHcEOwPvjgg0NoQkbmkHfeeac46qijinXXXXdkHLBUCUhAAhKQgAQqI3DCCScoWLO+ldS5LiCgYFWwZh3GCtbKmlwLkoAEJCABCUhgsAQUrFnfR+pcdxBQsCpYs45kBetgW073l4AEJCABCUigMgIK1qzvI3WuOwgoWBWsWUfysArWf//73wWLJP3pT38q/vOf/7SlcXNIcFswmokEJCABCUigIwgoWLO+j9S57iCgYFWwZh3JwyZY//nPfxZXXXVVscwyyxS77LJL8frrr7elYVSwtgWjmUhAAhKQgAQ6goCCNev7SJ3rDgIKVgVr1pE8bIL1xz/+cbH//vsXNDQ///nPi3/9619taRgVrG3BaCYSkIAEJCCBjiCgYM36PlLnuoOAglXBmnUktxSs7777bsGwXv7SY4r997//ndTAIR7ffvvt4i9/+ct7BCnHPPDAA8XOO+9cXHPNNY08ysdNTgupYJ0ceh4rAQlIQAIS6CwCCtas7yN1rjsIKFgVrFlHckvB+v3vf7/g/WdXX311ccghhzR6S3/3u981Wrrnn3++OOKII4rll1++WHXVVYtTTz21eO211xrbeK8rr52ZeeaZi/nmm6/YZ599ijfeeKMtLaSCtS0YzUQCEpCABCTQEQQUrFnfR+pcdxBQsCpYs47kloL1pz/9abHddtsVG2+8cXHFFVcUL7zwQqO39Jlnnil23HHHhph9+eWXi2effbY44IADikMPPbQhTOlxvf7664ttt922mDhxYuN/DgnuiPsCnZSABCQgAQlkRUDBmvV9pM51BwEFq4I160huKViZe4pYRYgy9JfE8OBTTjmlIVB/9rOfTWrUnnzyyWLXXXctrrvuusb/nn766WLvvfcu7rrrrrY2fAjfo48+ulhnnXXamq+ZSUACEpCABCSQHwEFa9b3kTrXHQQUrArWrCO5pWBFkDIP9corr5zUgr355pvFXnvtVZx++unF3//+94IhuojIX/7yl43/I2ZJTzzxRLH77rsXN998c1tbP3p4P/nJTxZrr712W/M1MwlIQAISkIAE8iOgYM36PlLnuoOAglXBmnUktxSszEmll/SGG26Y1IL95je/KbbYYoti7rnnLsaOHTvJllxyyWKBBRYozjzzzMa+3/jGN4ZFsD766KPFEkssUey55575tap6JAEJSEACEpBAWwkoWLO+j9S57iCgYFWwZh3J/QpWek3LgpVFl3ivKoswMXf1ueeeK771rW8V3/72twsWafrjH//YaKgee+yxtgvWr3/9641FnphX++tf/7qtDaKZSUACEpCABCSQHwEFa9b3kTrXHQQUrArWrCN50IKVIcAMyWXo73/+858+WzbEZTuHBCOAEass5KRYze+GQo8kIAEJSEACw0FAwZr1faTOdQcBBauCNetI7lew7rHHHo0Vf8vpnnvuKXbaaadJ71hl28MPP9xYNZi5qyQEK4sw3XTTTZPdfpHXCiusoFidbJJmIAEJSEACEugsAgrWrO8jda47CChYFaxZR3K/r7WhlzSt/JuauH/84x/FvffeW+y3336Nd7CuvvrqjWHC1157bcGiTCTmmvK/G2+8cbJaxjQMeJtttil+9atfTVZeHiwBCUhAAhKQQGcRULBmfR+pc91BQMGqYM06klsKVob/slJwmpdabuIYDsx7WulRxV555ZUCIZsS72Jl0aa33npryC1jEqsMA1asDhmjB0pAAhKQgAQ6loCCNev7SJ3rDgIKVgVr1pHcUrCOZOuWhgHTs8orc0wSkIAEJCABCdSPgII16/tInesOAgpWBWvWkZylYC0PA/7FL35Rv9bZGktAAhKQgAQk0CCgYM36PlLnuoOAglXBmnUkZydYyz2rP//5z22uJSABCUhAAhKoMQEFa9b3kTrXHQQUrArWrCM5K8GaxOpWW21VvPHGGzVunq26BCQgAQlIQAL2sGZ9D6lz3UNAwapgzTqasxGs6T2rzFlVrHqTIgEJSEACEpCAgjXre0id6x4CClYFa9bR3BCsDz300Ii2iqlndeutty5ef/31EfXFwiUgAQlIQAISyIeAQ4Kzvo/Uue4goGBVsGYdyQ3BSu/mSCXe17r88ssXDANWrI7UWbBcCUhAAhKQQJ4EFKxZ30fqXHcQULAqWLOO5L3Du99tv/32xZFHHlkcfvjhlRnlHXDAAcUKK6xQ0LPKO1tNEpCABCQgAQlIoExAwZr1faTOdQcBBauCNetI3mmqqaZ6Y+ONNy722GOP4sMf/nBl9pGPfKTRq4pIVqx6cyKBgRN4+eWXi5NOOqnYcsstiw022KDYbbfdiquuuqr44x//2MjkP//5T8GoiXPPPbd4++23B57xEPb8yU9+Upx11lnFD37wgyEcPfmHPP/888WnP/3pgmkFpHfeeae4/fbbi0022aTB6Nlnny3OOeec4v7775/8wsxBAhIYEQIK1qzvI3WuOwgoWBWsWUfyJtNNN90rN9xwQ0M0cvNZpf3oRz8q/vSnP41IA2ihEug0AgjRe++9t5gwYUJx7LHHFpdffnlxySWXNIQpD5sOPvjg4re//W3x7rvvFtdcc03xoQ99qPj973/f1moiTG+99dbiz3/+cyNfBCEjJJ544om2ltNXZl/72teKBx54oCFMSa+88krxhS98oXjuueca31966aVin332aYh4RDv+IuaffPLJSvyzEAlIoP0EFKxZ30fqXHcQULAqWLOO5PGjRo363jPPPNP+FsYcJSCBthL49a9/XRxxxBHF/vvvX/zmN7+ZlDcC9a677moItW9+85uN/999992NURPtFqy33HJLcdpppxV///vfG+V8+9vfLnbeeefi6aefbmtd+8rss5/9bHHBBRf0WdbDDz9c7Lnnng0hbZKABLqDgII16/tInesOAgpWBWvWkbxRCNbvP/74493RqlkLCXQoAYbz0hP45S9/ufjvf//bay0Y/UAvKvv0TPS+vvrqq8Xvfve7xiaEKsNlU0/kW2+91eiJ3GmnnQqmADCHHLGZEj2z9NQ+8sgjjSHFJIQwPZP49ctf/rL44he/WKy44orFoosuWuyyyy7FCy+8UHznO99p9GYyJPfaa68tmA/P9wcffHBSPuRFnnfeeWdj2+abb15wA0p9UkKAf+lLXyp4eEYP6q677lpst912xfXXX1/861//Kv72t781jllsscWKJZZYovj4xz9e/PznPy9++tOfFp/73OcaPaws4MYQ6XnnnbdYbbXVis985jMNBtS7vLDcH/7wh0bPNFMS6B1mO3xSSscg/s8+++zisssua/hgkoAERoaAgjXr+0id6w4CClYFa9aRrGAdmfbXUiXwHgK8e3j33Xcv9tprr4ZQ7C29+eabxfHHH98QcoOZM8pxzPOkx/XCCy8sLrroosbccYYMIzpJCL8tttjiPeIMkcnQ4v3226+xHfG62WabFR/4wAcaIg8R+93vfrchgBGQ1113XXHllVc2RDU+fuMb32jkjWg+//zzG+Uz3xWB+YlPfKI45JBDihdffLGxD1MStt1224bgpUzs6KOPbgjKm266qSEY+YsQxYebb765ITIRyhzDtIYf//jHxWGHHVasscYajbx5XRfb6QGmzFTOcccd16jTpZde2hDpMD/xxBMnTU/gAR7vg/7oRz/amAd7zz33TBL+hq0EJFA9AQVr1veROtcdBBSsCtasI1nBWn3ba4kS+B8CDLGltxIB2FcPK/+n9++ggw4q3v/+9zd6CM8444xG7+E///nPPqn+9a9/bYhHjk3phz/8YUMgXnzxxQ2BjGDecccdG72oqTcRwXrjjTc2xOWvfvWrxqGnnnpqY0hwEtX4jEDk/5RDYl+E5hVXXNGoC3VCADLnNqWf/exnjd5eBOM//vGPguHO9LwynDeVhdDde++9i2OOOabhE98RmojvlOhVRegzVJmESN13332Lb33rW43v9LwiSK+++urGd3yCW3lO6x133FHssMMODWFKoucZEYxgTkOv+zonhrIEJDD8BBSsWd9H6lx3EFCwKlizjmQF6/C3tZYggbYSYCgsPZD0th566KEFK24jNhFliL+BpjPPPLMh/v7973/3K1jpTUUwstgTllYkRtwhRsuLLiG+EZaIQ4QmQ30R2Qw7Lid6e/Gf+rCNerBvOdHziTEkmDIRp3zHZxI9qGXBivhk2DGLM5EQrghWhisjqBG/WDnBDJYnn3xy49/Mf+WY2267baAo3U8CEhhGAgrWrO8jda47CChYFaxZR7KCdRgbWbOWwHAT+MUvftGYL5qGCvNKl96GFKc5sizYRA8jvZkrrbRSgWht1cPKMFx6WFsJVoRmeeE2hCHvWGZ4MD2/EydObJTF0GHKTnNHx44d2/ic5t4icunRLSeG5CIkJ1ewMlyZuassTLXUUks1eoCTL7wCZ/HFF28MJyaxgNTHPvaxxpxYkwQkMPIEFKxZ30fqXHcQULAqWLOOZAXryLfFeiCBySbA+1bpOaQnMw3NTZnSg0mvJPNWGYKLSGVYL+9xZU4pQ38ZEsyw2J5DgllwifmgrQQrc0TT6sSUSfkI4yRYWdWXea/0zFJ2Mv7PAkuIUXxETCIsywm/2ylYDzzwwIZwZjGl5AefmePK8GYSdYFjeaGmyT5BZiABCQyZgII16/tInesOAgpWBWvWkaxgHXIT6oESqJYAvZisbssiSj0Tog9hh9Dic0rMveSVN+uvv/57BBj/R8Ai1hCs9NTSU8oKxGmVYP4yZBiRx7xShgQjilm0KL0/Ob3Wpi/BSh6s9IvoZZ5qX4lFl/oTrNSb4b70uqZe5IEOCWYINb29MOo5JLinT9SFHlbyNklAAiNPQMGa9X2kznUHAQWrgjXrSFawjnxbrAcSaAhAFg5i3mRfC/ywcBK9g4hSFk1K6c9//nNjdd/3ve99jZV0y0OCyevWW28t1l133UmLLiFoEabMPWXRJhI9tKz0i5j7y1/+0vgfq+WyMBKLGLH4EPnS48m7YNNrYFoJVlYSRrDy+hpWJKZHNYlhxCO9uffff39jPupAeljxEcGKYE75DFSw0lNMgg8rGNOzmxKrC9MbnF7zo2D1gpRAXgQUrFnfR+pcdxBQsCpYs45kBWte7bLe1JQAQ3J5tymvfunrtTYsDnTvvfc2Vs5lX1ay/eAHP9joGeW9pQjC1PNZxkjvJYsbMW+T/Ok15bUw9K4iZPlL7+VXv/rVYsKECY39eDUNc0/phWXlXnpgk+DjGMQucz3p9WX/8rucEbz4xArECFPqw2JIzIVlgSR8Z74qApnFkRCfrBrMwlE9F11CHPPOWEQ5+zGkefnll2+IaIQww3YRoF/5ylcm+UcdqAsJ8YlYRtCTmMeKkKY3F1/ghi+scpweAlAXtrHisEkCEhh5AgrWrO8jda47CChYFaxZR7KCdeTbYj2QQGPeJ0KJ1Xb7e4UK70Rl1VvmoTI8FmH41FNPTep17A0nxyDa6FFFPFIevab0cjJkF5HJir4PP/xw8ZnPfKaR58svv9wQhfiVel0RfIhD9vne977XWN0XcVge7ks+CFGOTz2h+EQPJu9jxWd8Kb9LFkGKQHzllVfe4z6CE2M4MgnhzLGsMMxn6sCiU/SSkljAid5THgCQ0nZ8TQnhj8+nn356Y4gwva7pVTrsQ10eeeSRSSLd8JSABEaWgII16/tInesOAgpWBWvWkaxgHdl22NIlIAEJSEACEmhBQMGa9X2kznUHAQWrgjXrSFawepsgAQlIQAISkEC2BBSsWd9H6lx3EFCwKlizjmQFa7ZNtI5JQAISkIAEJKBgzfo+Uue6g4CCVcGadSQrWL0XkIAEJCABCUggWwIK1qzvI3WuOwgoWBWsWUeygjXbJlrHJCABCUhAAhJQsGZ9H6lz3UFAwapgzTqSFazeC0hAAhKQgAQkkC0BBWvW95E61x0EFKwK1qwjWcGabROtYxKQgAQkIAEJKFizvo/Uue4goGBVsGYdyQpW7wUkIAEJSEACEsiWgII16/tInesOAgpWBWvWkaxgzbaJ1jEJSEACEpCABBSsWd9H6lx3EFCwKlizjmQFq/cCEpCABCQgAQlkS0DBmvV9pM51BwEFq4I160hWsGbbROuYBCQgAQlIQAIK1qzvI3WuOwgoWBWsWUeygtV7AQlIQAISkIAEsiWgYM36PlLnuoOAglXBmnUkK1izbaJ1TAISkIAEJCABBWvW95E61x0EFKwK1qwjWcHqvYAEJCABCUhAAtkSULBmfR+pc91BQMGqYM06khWs2TbROiYBCUhAAhKQgII16/tInesOAgpWBWvWkaxg9V5AAhKQgAQkIIFsCShYs76P1LnuIKBgVbBmHckK1mybaB2TgAQkIAEJSEDBmvV9pM51BwEFq4I160hWsHovIAEJSEACEpBAtgQUrFnfR+pcdxBQsCpYs45kBWu2TbSOSUACEpCABCSgYM36PlLnuoOAglXBmnUkK1i9F5CABCQgAQlIIFsCCtas7yN1rjsIKFgVrFlHsoI12yZaxyQgAQlIQAISULBmfR+pc91BQMGqYM06khWs3gtIQAISkIAEJJAtAQVr1veROtcdBBSsCtasI1nBmm0TrWMSkIAEJCABCShYs76P1LnuIKBgVbBmHckKVu8FJCABCUhAAhLIloCCNev7SJ3rDgIKVgVr1pGsYM22idYxCUhAAhKQgAQUrFnfR+pcdxBQsCpYs45kBav3AhKQgAQkIAEJZEtAwZr1faTOdQcBBauCNetIbgjWZ555JtuGSsckIAEJSEACEqgvgZNOOqmYccYZ74q7qXmzvqPSOQl0LgEFq4I16+jdaIYZZvjRzTffXLz++uvFa6+9psnAGDAGjAFjwBgwBrKJgeOPP76YbbbZ7lawZn0/qXOdTUDBqmDNOoI/MPPMMz+/zjrr/HXLLbd8e9NNN63UNt988z+F/X6zzTb7Y9VlW16151re8jYGjAFjIJ8YiLb3z7S/W2yxxZs5n5e4P3h76623/svss89+f9xNLZD1HZXOSaBzCShYFaxZR+8a4d0RYSeGHTcCdmqUeXHYZ0eg7JGor2WOTJzJXe7GgDFgDLw3Bk6OdveisPM6oP09Pnw8KWyerO+odE4CnUtAwapg7dzorcDzxZuN5W4VlGUREpCABCQgAQn8PwLzhX067OMCkYAEak9Awapgrf1F0ArASrHxnrCjpSQBCUhAAhKQQGUEloiSbgo7u7ISLUgCEsiVgIJVwZprbGbh1yrhxcNhDEk2SUACEpCABCRQDYGxUQwr715QTXGWIgEJZExAwapgzTg8R961pcMF5rDuM/Ku6IEEJCABCUigNgQWiZqeE3Z4bWpsRSUggb4IKFgVrF4dEpCABCQgAQlIQAISkIAEsiSgYFWwZhmYOiUBCUhAAhKQgAQkIAEJSEDBqmD1KuiHwBSxHTNJQAISkIAEJFAdAdvf6lhbkgRyJqBgVbDmHJ8j7tts4cEGYcuOuCc6IAEJSEACEqgPgZmjquuGjatPla2pBCTQBwEFq4LVi6MFARrKO8OOkpIEJCABCUhAApURWDJKuiHsrMpKtCAJSCBXAgpWBWuusZmFXyuHFw+EHZ+FNzohAQlIQAISqAeBpaKat4WdV4/qWksJSKAFAQWrgtULpAWBFWPbrWFHSEkCEpCABCQggcoILBElXRP2qcpKtCAJSCBXAgpWBWuusZmFX3OHFx8KWysLb3RCAhKQgAQkUA8CrCExIWyjelTXWkpAAi0IKFgVrF4gLQiwQuGUYa4SbJhIQAISkIAEqiVA+4uZJCCBehNQsCpY630FWHsJSEACEpCABCQgAQlIIFsCClYFa7bBmYNjPNmdPmzaHJzRBwlIQAISkEBNCND+jgqbrib1tZoSkEDfBBSsClavjxYEFottp4TtICUJSEACEpCABCojMH+UdFzYPpWVaEESkECuBBSsCtZcYzMLv8aFF3eHHZ2FNzohAQlIQAISqAcB3sN6Y9jZ9aiutZSABFoQULAqWL1AWhDgPaxfDfM9rIaJBCQgAQlIoDoCvoe1OtaWJIHcCShYFay5x+iI+sd7WG8OO2xEvbBwCUhAAhKQQL0ILB7VvTrsjHpV29pKQAK9EFCwKli9MFoQmCa2zR42k5QkIAEJSEACEqiMwNRREu9inaWyEi1IAhLIlYCCVcGaa2zqlwQkIAEJSEACEpCABCRQcwIKVgVrzS8Bqy8BCUhAAhKQgAQkIAEJ5EpAwapgzTU2s/BrxvBi2bAFs/BGJyQgAQlIQAL1IMA7WMeGLVqP6lpLCUigBQEFq4LVC6QFgeVj2zVhH5eSBCQgAQlIQAKVEeA96J8PO6myEi1IAhLIlYCCVcGaa2xm4dcq4cWDYb7WJovToRMSkIAEJFATArzW5vaw82tSX6spAQn0TUDBqmD1+mhBYFxsuyfsGClJQAISkIAEJFAZgSWjpJvCPltZiRYkAQnkSkDBqmDNNTaz8Iu5qweGfSALb3RCAhKQgAQkUA8Cc0U19/EerR4n21pKoB8CClZ/DL1IWhCYKrax8BKLP5gkIAEJSEACEqiGwJTN9nf6aoqzFAlIIGMCClYFa8bhqWsSkIAEJCABCUhAAhKQQJ0JKFgVrHWOf+suAQlIQAISkIAEJCABCWRMQMGqYM04PEfeNeawfizMOawjfy70QAISkIAE6kOAOaz7eo9WnxNuTSXQgoCC1R9DL5AWBFaKbXeGHSklCWRMYFz4xvuCzwibM2M/da13AtPGv3cIezLsc2FzhK0bxgrlN4ctLTgJ1JDAElHn68POrGHdrbIEJPBeAgrW4PFBo0ICfRBYOf5/f9ixEpJAhgRmDp8+GvaFsJfDEK0LZ+hnK5dY1GzbsA3Cpugw39vl7rKR0efDLgnj3c8LhX0q7IawjcNGt6sg85FABxHgPay3hJ3bQT7rqgQkMDwEFKzBVcE6PMHVDbly8/hg2AndUBnr0HUEVogaHRD2vjDeVXhx2CIdVkt6hE+v+e/w+Kj/1c3zyOnj/ZOXh+3XYedSdyXQTgII1jvCzm9npuYlAQl0JAEFa81vlDoyait0eqYoa7kwejxMEsiNwCzh0OimU8fH30vDBiJYt4/92L+vfeeJbczdZv4Y87fp5Xgq7IiwuUsQ6BFdPezCMIaz3hW2d8kndp01jHcp3hf2XNiXwt7fzGNM/EWo/Sbsx2H0KrI/iZvVz4Q9FsawfPKlN5Y0ddiE5v+2buaBaO+th5b9GNLPfPSUEMmMmli/+Y9V4y/Cn7rw94lmmdSdV1ulxO/BHmEM1X08jKGK+Nlf4jeEunwz7KGwg8ISx03iM+z+EPbDsNvCbmp+fy3+fjFszbAPNcveJf7SE7tis1CYfDgMRs+EnR3GgwyTBDqdAK+zWSZs0U6viP5LQAKTTUDBGgjtYZ3sODIDCUhghAmcEuUPVLAi1hCXfQkbHtBcFfZsGAJuszCGHt8YhvCaoVlXxNZXwhCy24TtGoZ4PTlsujAEHr2EDFlGVPFb+4mwK5t5MqR5tzCE1llhCMZpwhCQt4adGjYhbM/mMRxL2QhTRPBXw6gzvtEr2Ztg5Zhrw8aGpUT9EIU7Nf+BgEZIktdWYYhghB/z59Zr7oOv+IjApp7sQ6829U3isVTEpI9rN/M9Jf4y9HnH5nfmGyNaFwjjfDwaRk8zTHdv+sN81g3DENvHhcHp02Gw5KHC6LCjwvATIcuDCET/Vf341Juf/k8CEpCABCSQKwEFa5wZBWuu4alfEpDAQAmcEjsOVLAi2Jg3mXose5Yxf/wDIUovIj0cKe0VH24PYzGy2cLoYWQYMmIupe2a+6wWf+cNY/7ZoaXtLDBEjyECk8Rf5moiikn0qhwd9uWw8sgG8qWXlnnlCFNE29fDEGn0uPaVDowNV5TKYz9E4lVh5EmipzX1fOIfaUwYCx4hjEmIWnqaEZwpLRYf8J0e3HRcaXOjLjCiV5kyU9oiPlwXltoe5u8i6vlLWjyMXlR6c0n08iLeeYCAqE9pfHygRxYWKXEsccA0ht58Ku3qRwlIQAISkEBHEFCwxmlSsHZErI6Ik/QSzRfGzblJAjkTOKUpVAYyJLi/etCjxyJAzB2bsrQzQpMhqluGIWT5nERV2g0hTA8qwg5BfFoYvYf0wLL6bc+E+KU3FeFJQqQi3j7SY0eG8dIrSr5clzReiNr+6jsQwTq+6fMapTJHx2fmkSJYEcj0ItPr2rMOJ8X/LghDnPdMY5o+HtNjA3wR+mn1cYYeU5fNm/vR843IpueYhPBlCDfCl7qTELEM2ebBQvmBAdv2DKM3vDx8u6dvfpdA7gQYbcF15crnuZ8p/ZPA8BNQsAZjBevwB1qnlsD8NG7ae96Ud2p99Lt7CZwSVRtoD2t/FBCNDHUlz3JiLibDVJlPSk8fw2N5HUs5ISARcAg8Ej2oDHmlZ5YeQkQnw26TEO4pWOm1pCf1+2HMJU3Gsczz3D8M0YZw5dqkN7hV6k2wcgziL/Wwjo/PF4WxyFpKCNPLwuhVpgf3xDDmmD5d8oke6F+GUafe5rkj3hGiB/dwcHR8hxH+I4YZBtxKsDIM+pNh9FanObXczMP4d2FPlXz6Rnz+aRjDpZ173wO8XzuKAPHLFIRDOsprnZWABIaDgII1qCpYhyO0uiNPbmAfDuNm1SSBnAmcEs4Nt2AdF2XQ68gQVIQmPalpHmhiw0MehB4LC6VEDyFzOZlnSS8lQ20nNDcy/7Pcw4pgZegtApK5nMxxxTiWOaDcxCIgabzOC+tPsLJ4VM8hwWPif4hMFjIijQ9jCC7DmFNCsCLOEayIRH4DGH6L+Ew+8RfBzpzb1PNZyuL/8B5JGDGPtpzoNeJcMY+V1F8PaxKs5zR94RgEK/kiVqlj2SfEPD6N6lGuXyXQSQSYd85cex7umCQggXoTULDG+Vew1vsiaFV7BOsDYQzHM0kgZwIsdIToasd7WBmyitBCsJXnQY6P79eEsSIvczIZ1sqiP+W0VnxBDLIoEb2HaYGmtM/s8YFeE8QmIg/BihBMv8NzxWd6HvdsARsBiWgeSA8riz4hshHCKXFdM2c1ie3x8bkvwUpvMol8WGQJ/waaqCtDq1msqTzPdvn4Dl96i0mbhg22h5UeaoZNcz5GD9Qh95NABxHg4Re/DfxWmCQggXoTULDG+Vew1vsiaFV7ltNn8ZI0v05SEsiJQHl+KXMp6ZUsv76lL19Z9Idhdn3tS68lAur5MMQUKS38w9Beejnp4SOPO8IYKkxizirXCz2o5DEmDCGdejLZhznh3IAytxURt3QYq9zSm5rKobfw3rDyAkN8Zi4owpN603gNRLDiPw+d0qJOzOs8JYyhvfTYksaH9SdY8ZOeX4bhJu7MrYMB+aShus0sG3/Yj1WWOY4yUuIBGL3K9FKT8G2wgpXjEL5XhcEllY9PiGx+s3rzqeyfnyWQMwF+K5jnvWfOTuqbBCRQCQEFa2BWsFYSax1ZCL1LDN8b3ZHe63S3E0DoIHyYS/nbsLfCvhXGHFB6D/sSLIhK5jgmwdSTU1oUiIV7GG7K4kqPhSEsmfeZBBv7IeBY+AeBeWcYIjKtdst1w1Be5ovy7lJ6NcnzlLC0+jD7fCrs5TCGvHKTynBchrtSLscxLJBhvfjCNspnXjk9p/0JdATcp8MeCaPODMNlMaP7w9KDqI2bPtI7nBLHISKZA0tPMWWy2NSFYfT6cDwr/ZIfQ4nLDw9K2TQWjKF3lp5Qzguc8Ju8Uq8rvdGcRxamIo1r5p2GEqcHAQy1Lp9THhpsGMaQSR4SIMw5F9SXBbL68qnsn58lkCsB4psHTIxUMElAAvUmoGCN869grfdFYO0l0KkEGDJHbySias8wRBw9eqwey1DbvgQLCyEhaGbpo+L0oE4Mo3d0TBjDbxm+ijDrKYJnjf8hnCmXIar0RJYToozVd/EPP/m97TlsmV5TjkXEJZ8YSszQY8QePYaI4DS8GAHJ4k4rhzE/tr/EQ6cJYXAhH1b9Zo5nErvcFPO9fGPMcGXqi2+UlxILKfEeVkQvdelPMHPcTGEbhcGIObGpRzrliUjnfPCXBFN6lJkDS4I5XMeFlX1JxzPXD37wnRDGyBCTBCQgAQlIoFsIKFjjTCpYuyWcrYcEJNAOAghWhhef2o7MzEMCEuhqAjw8YpRAz4dVXV1pKycBCVRKQMGqYK004DqtMHpeeKBBD5FJAnUhwA0ow3EZomuSgAQk0IrAerGR4f5PhrGg2jptwjU68kEIpykGbcrWbCQggQ4koGBtCpIOPHe6XAEBhlWyYMrhFZRlERLIhQBzJpnPyZBbkwQkIIFWBNaPjcxBL8L+G/Z8GPPdGTY/mFW1e5axePyDud/McTdJQAL1JqBgjfPvkOB6XwStas8NO4urHCsiCUhAAhKQgAT+hwA9rN9uClZEa7Lfx2cWTWMufPkdxwNFyBx9HhifO9AD3E8CEuhaAgpWBWvXBnc7KoZgZeVNBWs7aJqHBCQgAQl0GwGmzLA6eVmslj+/29x+afzdMYwRHANJY2InXqOlYB0ILfeRQHcTULAqWLs7wiezdqzmyfsiWX2V4cGaDIwBY8AYMAaMgf8XA7yeivbx+y0Ea1m8vhH78QqmM8NY2ZpXa7HyNu8U7mnrxv+YjsNK4T230TbzQJkVsk0SkED3E1CwKli7P8ono4Y0yJ8P4x2OT2gyMAaMAWPAGDAGJsUAbeMLYX8ZoGBtiNcpppiimGaaaX4dn3mH9NeabSx5lY2FnO4Iu7uX7Y+NGjXqwfg/r3IySUAC3U9Awapg7f4on4wazhnHTgg7JOxgTQbGgDFgDBgDxsB7YuD84EHPaV9Dgnv+/ychWL+13HLLFaeddlpxxRVXDNrOPPPMYqWVVnonyjxuMtp3D5WABDqHgIJVwdo50aqnEpCABCQgAQlkRYCRSM8MQLDy2htW/P1A2Cc22mijd1977bViKOnNN98stthiiz9HPkdlRUJnJCCB4SKgYFWwDldsdUW+Y6IWx4RN6IraWAkJSEACEpBAewn0tUowPau/C7sOgRpWfk3WzhtssEHx/PPPD0WvFq+++mqx8cYbK1jbex7NTQI5E1CwKlhzjs8R923V8IA5NSeNuCc6IAEJSEACEsiPwIbhEvNYy0N/eS/rxDBWBZ67F5d3U7DmdyL1SAIZE1CwKlgzDs+Rd22VcIGFHU4YeVf0QAISkIAEJJAdAVb5/WZTsN4Vf48M2yhsqhaeKlizO406JIGsCShYFaxZB+hIO8eLy88LY9l+kwQkIAEJSEAC7yUwXXydEPbxsDEDhKNgHSAod5OABBoEFKwKVi+FFgRmiG28521+KUlAAhKQgAQk0BYCCta2YDQTCdSGgIJVwVqbYLeiEpCABCQgAQmMPAEF68ifAz2QQCcRULAqWDspXvVVAhKQgAQkIIEOJ6Bg7fATqPsSqJiAglXBWnHIdVZxs4a7a4cxl9UkAQlIQAISkMDkE1CwTj5Dc5BAnQgoWBWsdYr3Qdd1+Tji2rCDB32kB0hAAhKQgAQk0BsBBatxIQEJDIaAglXBOph4qd2+vOj8/rBja1dzKywBCUhAAhIYHgIK1uHhaq4S6FYCClYFa7fGdlvqtVrk8ljYKW3JzUwkIAEJSEACElCwGgMSkMBgCChYFayDiZfa7btQ1PigsE1rV3MrLAEJSEACEhgeAgrW4eFqrhLoVgIKVgVrt8a29ZKABCQgAQlIIEMCCtYMT4ouSSBjAgpWBWvG4alrEpCABCQgAQl0GwEFa7edUesjgeEloGBVsA5vhHV47lOG/9OGTd3h9dB9CUhAAhKQQC4EFKy5nAn9kEBnEFCwKlg7I1JHyMv5otw9wjYcofItVgISkIAEJNBtBBSs3XZGrY8EhpeAglXBOrwR1uG5rxr+Pxx2YofXQ/clIAEJSEACuRBQsOZyJvRDAp1BQMGqYO2MSB0hL1eJch8MO36EyrdYCUhAAhKQQLcRULB22xm1PhIYXgIKVgXr8EZYh+e+bPh/ZdhHO7weui8BCUhAAhLIhYCCNZczoR8S6AwCClYFa2dE6gh5OWuUu3bYUiNUvsVKQAISkIAEuo2AgrXbzqj1kcDwElCwKliHN8LMXQISkIAEJCABCZQIKFgNBwlIYDAEFKwK1sHEi/tKQAISkIAEJCCBySKgYJ0sfB4sgdoRULAqWGsX9IOp8PSx86Jhcw/mIPeVgAQkIAEJSKBPAgpWg0MCEhgMAQWrgnUw8VK7fZeJGn8ubL/a1dwKS0ACEpCABIaHgIJ1eLiaqwS6lYCCVcHarbHdlnqtHLncF3bsAHNbLPYbFzbLAPd3NwlIQAISkEDdCChY63bGra8EJo+AglXBOnkR1OVHrxr1eyTspBb1nDG2IWz3CLs57EthS3Y5F6snAQlIQAISGCoBBetQyXmcBOpJQMGqYK1n5A+w1gjPs8N27WX/BeJ/m4SdEfa1sOfDzglbc4B5u5sEJCABCUigjgQUrHU869ZZAkMnoGBVsA49emp4JIswLRfGhXN1U6Q+Fn/3D5u/hjyssgQkIAEJSGCwBBSsgyXm/hKoNwEFq4K13lfAAGs/T+y3UdgpYQwRfi7s3DCGDJskIAEJSEACEhg4gR032GCD4vnnny+Gkl599dVi4403/nMUd9TAi3RPCUiggwkoWBWsHRy+w+f6VJH1nGH0pm4VdlnY02GPNhtIhgKPC1slbImwaUquzBqfVw9DzDK3dcHStqnj8yLNbavF3+XDZihtH9XMk2PJm1fqTNHcPmX8pReXPDmW8suLO7F9heY2jl0qjPJSmis+rNTcTv7Ur5zGxpfk97Lxmd7klEbHB3ylXPbBD8pLaUx8WCOMfPGh7NdM8Z3VltOx7AvflOYtHTsuPpf9ggfDstOx1Gna0rH4VWZd7uXmnFAWPnE857JcJz6zLbFm35SoG0O+4cixcJu5tB3/V2xuYx98LLPmNUjUhWPZPkfpWD4uXfIb1tQzpdnjQzqPHA+fFAPsQ0yUWZf94jP5JV7EWpn1fKVjqVPZL3jANx1LncpxPVvJZ2KQvFJiP/yCJeejZ52I8TJr/EoJ/xYKS6zhWq4TXFPcpuutXCceJo1r+s12+JUTvqQYIQ6nK21k33QeqTd5lVkvHt8Ta+KfWE6JGC+zpg7la4L4Scfif9kveHC9JdaUU2bNeUnHwpoYSIn4Z3G3dGzPOuEj29Lvz8KlY3uyJs7KdcKHcc3jYYlfqU5wwY/0+8Pf0aW82c41lsomxsvXKtd1Yo1vXCNl1vyOpvMEa9YGSInf1JQ3+/CbWmYN+8SLMojVlGCNL4kX7Hr+LqZjx8U2YiAlYgUG6VjyKccPcVpmjR8pUQbs0+9PzzqRDwzT7w9+lVlzfZVZwyAluKXfY44nlsrxA+vybz2//WXWXOeJNVzLbdDoUt7sQxyXWVOnMuuyX5yzMmt+E3r+LnIssXXC+uuv/18Fa+ms+lECEmhFQMEadD5ojEigBwEa8PeH3R9WhP0yjJWCuZHkZuCssJfCfhR2VVj55n39+P7jsJfD6Ik9opQ3N62nNbe9En/vDeOGM6Ux8eG7Yd9r/mX+bGrwucE5OOzbYd8P+2bYeqVjERwPhpHvC2FfDCvfJH84vn+jeSy+bx9WvhH5cnz/SRjbbg/jBjKljePDV8N+EEadPxZWvnE7I77/LIw6P9zDL266bmr69Wr8Zd+yINk7vr8eRp2fCvtQqVxu4i5vHotvXwgr31C+L76TJ+V+K+yQ0rGcp0838/1h/L0zrLwYFvV7sbkd5p8KSzd1sDws7Dth1Blua5XyRqx8vbkN1leElW/cmPNMXThPz4dtHVZmfX18J0ZgfWsYN3YpbR4fOI+Uy7lkuHn5ZpSY+FkYdWa/8pxpbjDJj+PgcnJY+cb/o/H9jTBYU6dtS+XCBr4cC2te5wTDsl8/bZb7bPw9sLQN8YFf1Jf4wAfOXUoIO8rEYHpqaRv+0UvyfBh1/noYIiAlYvjJZt6wvjQsiSyY7hXGwyTKJm/4lW/O8QWfYE0clkUFD6OYf86xlE1eZdYXxPfXwmBN/HOjndLa8eGOsMSL34fyA5FPxPfE+on4vEXpWG7qr2oey3m6KKz88IDz8rNmuc/E331Kx/Jbc17TZ+p1Y1j5AQDXG3WBNb8VJ5SO5bo7LgyO+M21Oq60nfOYWD7f9Cs9TOF3aL8w/IEXv238LiTWiGGuMa41rqvrwsq/i7SzPPDjWIxrpCxmOK8pvvhdREynxG/q3U2fic0jw8oPeY6O7+k35LH4vEnpWATZtc1jYX1uWFnQ7hjffxbGOabuu5eORRgTA/jL9fqVsPIDSK496pt+6/EjJX4PWKyPuIP1A2HlOiEE+c1KvxGc0/SbSgxyrabtMN+wlDcPAohH8oU1v92I0pR2iA+PN/MmDqhj+SEP1zks8O2usHIbtFF8v6+ZN3U+tOQX+VMnWFNnRhuNL5WLSOa3Lf3+nBmfy7+LuzSPJXZeW2eddf7z4osvDqWDtXj99dftYS2B96MEakBAwRonWcFag0gfYhW5qfp12JthNLKfDdspbLswhBU3oQiZ8o0qgoptxNU2YTwJT4kbEm562YZg/EDY6NJ2bsQnNLfzFwGShA5/ufHnZpbyudnmBjMlbkg2beZL/tzklUUlAoJjOJbtY8LKN/YbxHdudNiGWC/3ktJzSd6p3tzglAUYT/m5KeLYzcLKopIbcW6CqC/5s29ZFCCU0rH4h18pcYO9TulYBHqZNX4ln2ENn5SoO8InsebmulwnPrMNg2lZJMGSG93Eesv4XGaN/5x7eEwIwy9uIlNCDCfWbEcklVmPj+8pRhDdSYBxPDeyiTXM6D0psyYmEi/2K/uFwCS/xHpcfC6LAoRSmXVZ6MCDeqRj4V6OH27U07EI8PJNLuIBfik+8KH8UGJ0fC+zLgs//ONGHk4cD9eyUMaHMkuEYqoTTImftJ3zBb8ya3xJrInDsoDnvBCvlIuRV5k113aZdVlUwp3rJPHiZr0sCojFdCzxUxY63MRzfaZjKafMml6sMuul4ntKxP8aTX+pF3Uqxw8+pmscHviVEnHL93RNUHceCKTEeSyzxq9UJ7jgB+ee/LneuP5SgjnXGHUi//Fh5Z47Yo2HCYn14vG5zJrzmq5lfhfLopLfk5Q3dSZeyqzpVU28iB9iICXy4bctsYZdmfWY0rHUnWs3JWIFBimuEY3l+EEkpvrCAz9S4vdgXFhizbVarhNsOCb9hiB+y7/1XKtpO8znLeXNfuXfeupXFvDUiZhLcbBofC5fE1zniTVcR5fy5iED/KkXrInj8nmiTok157P8UIL6jW8eS/78JpR/FznnHIvv52+00UbFCy+8UPztb38blP39738vfvCDHxSbbbbZ25HPUSXf/SgBCXQvAQVrnFsFa/cG+OTWjMb5rjCEKjcNfOap8y1he4chJso3i5NbnsdLQAISkIAEuprAlFNOuee6665bnH/++cWnPvWpQdmZZ55ZnHjiiUUc/8+AVB5B0NXMrJwEak5Awapgrfkl0Lr6PMm/IYzhfSSeNK8cdlYYPa4M1To9jF4cnoCXn2ILVgISkIAEJCCBHgSmn376bUeNGvXitNNO+3gLe2aaaaZ5PezHvezzVPyfIe37ClcCEqgFAQWrgrUWgT7USjLki55VhrGWE8KUbXuEMd+KuWRfDvtwGEPKRg+1QI+TgAQkIAEJdDkB2tD+jHaUYccMYW61b5ejsnoSkEAQULAGBIcEey1MDgHm6DCv8JwwFn15KIz5QyYJ9EeAOV8MK2e+LHMcy/NN+zt2crczF485icwrI4aZE4gP/G90GHMhB+oTN5PMy+QhTlWjDJgjy6iG8nzooTBh1ATzUZlrXqX/g/GV84Nv5QVs+jueOcnMGy3PbezvGLdLQAISkIAEciSgYI2zomDNMTQ7zydu+LlBZGGO8sJAnVcTPR5uAogkhpsztJwVd1nJ87awCRXFDvG5fxjzsRnyjjDlocv9YY+FMaqA7Z8LKy/20hcXRNFHwy4Mq0Igca0xmgHfywsSDeW8sbjNF8PeaNa5vJjPUPIbjmPw8ZKwgwaROecQPuWFyAZxuLtKQAISkIAEsiGgYI1ToWDNJh6zc4QeL3o1yqtdZuekDnUcAXo1bw+7NIw50ay2emAYr76gd364eykpHzF6ZBi9d5R3TBjD2seEIdpYqZae34E8fEGkfrxZn/KqoMN1YvBvtzBEPmJuchKvMflSGKu0Djf3ofqJ6OTVSWku/UDyodeYVWvLK2MP5Dj3kUAuBLjOid/yysy5+KYfEpBAtQQUrMFbwVpt0HVSacxH/UzYRzrJaX3NngCvQ7ksjF7NlBge/JUwRGRfK08jBhmq298DFPZDBPOalsXCykNJufnjdRcI5kOb+9FLiWjjHYp8pnyMV56UexwRr4wiIF/yT+IUwfqxsAvCGKrLa0UQxbyOpGePZZr/zbXF6zbKvrGNunGTSlnkU349TnxtJPLknY43hzGkOiWGB/OaDfzjlTWtxDZl4R8rgCPUmSdX9mV007/e6kG+7Eu96YHmNTyUjd/8D5/hjuhPr1AhP/KiN7v8WhUYwrnnTTn8OQY/eYUQDxgODkuJh2mUTV3Jl7goJ3xMfpEH+eMffOFaLo+yxjTz6u2c9cjarxKohABxekoYozdMEpBAvQkoWOP8K1jrfRG0qv242HhPGL1PJgm0iwCCq+fcS74jSk4M62uuIr2AiDTecdhXGh0b9gy7M4zFwL4bdn4Y799EuPDORob98g7DXzfzuzb+/qlpj8ZfhpMijhBy6T2L/D087MkwhhLTu0nvJGIH0UUP8ZVhm4VdFfb9MEQx73RM73Gkjhs1t78Qf78VdmYYoovEdt79eHHYAc0yENfl90CyX2+CFZG4a9itYdT7a2GHhtHT2FtCWMIaBm+FvRa2T7OsVeIvQvbpMOalXxPG+z3TcGdWBWc4N73KiHx+HxDgnwo7LGyvMIZ6vxRGPXgIwP+p71Nh9A6n+cqUdXnzf8lPtnHcuWGw5fiyYEVswonXa70S9oOwz4fx7tzUSwy3u8PogUYgUyZDthlWDCPehcm+iGo4PBEGN4YR8/7PyZ0bnOriXwkMlQC/CzeFcS2aJCCBehNQsMb5V7DW+yJoVXtuJh8MO15EEhhmAvSicXNGb35f8yhZrZr5ltu28AVhxVDjCWGjwxBSV4UhaOiRQ4hsEnZdGAItLV7EHEnyplcOkXRsGIIIwUdvHdcAYnmNMHrzKIdjtgpDUDJcFeGE0KUcek/PaB5DbyziiHKZJ8v8WHoV6R1FsCLYkrCkbojZiWEIMBYb6pnKgpWbWspH4PFwCcFMb3US94js3nqsU6/jKc3yWXQJYYdPnIeTwugN5eEB82X5H0KexHmARZp3jI/UEfHKwwDmsY8Oo9eZ3w+EInXBL/zhQQC/LSR62a8O27v5nT8IVjjCtyxYEciktcI4nzTglENvLhwRovhM2jHskTDqRV0R8y+HfTpstTDqRQ/WRWGIYerNuWc/ztHGzeOa2flHApUT4EEND7144GaSgATqTUDBGudfwVrvi6BV7bnZo3cl3ShKSgLDQQCxNjGMHjWGsvaVEGr08rVaTRhBWh5ySl7bh10Vtm4zYwQP4jT11CJIWeUaoZt6M4+Oz/S2IbKYC8kcSsRMSmn4LoIKOyLsq2FjSvsgHhFR9PIxHPW4MMRb2b9x8R3xl3r8JsRneoXpCe4r9RSsiEWGU5dFH8fSy8j/6V3uKzEEe2IYIpuEyKSuXPspIeoRiKeEwZ8Fs+4IQ6QnXpxDeHEOU0/ssvE59cCmnk+EKwIdoU9CPHIu9iyVx/mlJxRWvfWwsj2VkQ6DF6zHN/9BDyximXnIJHp96eFduVQOzO/r8T/yPTkMYev81xIsP1ZOgAcxXHc8PDJJQAL1JqBgjfOvYK33RdCq9twYM+erpwCQmATaRYA5g6eHIVpaCavBlIc4QmjSg4bR20YvWhKBCNerwug5JCHIzmvuk2I9CVZ63XgXIr2C9K72lhA5CCx6BMvXCuUhGOm9Y+jpZWEnhCEw6QnEN/JkH3oUEWIIOYQXc2X7Skmw0utJLwwiDHFGPckz5Y3f9DLyt7eE2GQ4L8IwPShAcCLWevbs4jeinv8j4LmRTj2u5I3gRfAzNDolBOvEsMSZ//OwgPnC9KSTUq/5nqXj+hOsaVd6SWFJnRGfxBDDlUllwUo9dwlDPKd6IYT3DbsrbFwzD7iNCftkGGzJ1ySBkSJA3PIwrefDmZHyx3IlIIGRI6BgDfYK1pELQEuWQJ0JIBAuCEPolHv0JocJQhVxcmMYcyh/EvaLMIQbw09JAxWsSeDQU0l+9Ab2lrihpGeS4aVlwcrQWMQoPawIUIYY/7bpE35hPw37URjDhBGiW4YxqgEh1lcqC1aGBDP8940w6pny5S/zUp8Jw4/eUm+CFfHKUGaEejkhqOkZpdeHc0VdP1DaAcGa5t6mf9O7yYOA8pzjteP7VWGTI1gZ4ky7xVDi55p1pv4vhqWHEj0FK6IZQTu66RyClXm1fw7jHCRur8bn18N4QJF6nd8Dwi8SkIAEJCCBigkoWJsNf8XcLU4CEqg5ARYxYm4WPXrMM21HomeOYbeIjfeH0XuL7RRGj+B6zUIGKlgZ4pp6WBGRiK3eUhKsCLZyb0gSrKmHlR5YejTxCTGEMZSWnkIEFEKUXstrwwYqWFMP6wNxDEOfyRO2/MV3eo/7GkLdm2Bl4SQEa5pTm+rL/zhf5ElPeG+Clfp9tAQoCVZ6flPqS7DuUdoHFswhZmgyQ7ypIz3kPBTA5z3D6BlF3FNXeCKeEbAbNfPpTbDSszu6uT31sNKbjQBP3Mhr9jBGlqThziXX/CgBCUhAAhKonICCNZDbw1p53HVMgdzsMtyQBWRMEmgXAUQdcycZetpq6GvP8tIQ9b5WcGW453Vhn+lxIL2X9JAyHJU0GMFKjy1zNhFPe5byTYsW0aPaSrDiDz2siFLEKqvr9hSQ1If8BitYmftKDyuiDZFbHnqbXKWsNH+0J8+yYGXIMom5nleFMVQ3JQQcgp3VdMmP34R2CVbEIg8TDiiVR30YPo3ApLwkWDmPnA/OLwK2zJF27N6wVj2sZcEKE0QuC0elea7JBbj0tfBXyU0/SmBYCfDQhOH3xL9JAhKoNwEFa5x/BWu9L4JWtedGnRv9Q0UkgTYSGB953R2GOBoTxjDTxZtGT1dfgpQhuVeFTejDlxnj/wxp/UIY8yfpDWRuI8NS6UljaCo9awhWBB5Dh0k8mGFoMqI0Demlp5Zj6GlEkPKdeY0cy9xGevfoUWS4MHmyMBkiq9zDOr55DNcRAoleX1b9RFimXlaOJx/2QShtE0bPbqv5k4ip3Zp5cTNL3vuFUSfmcFJvBCjzallAqK+FrCjv+Gb56cEBD6co/5Qw/jdHM2/+t0kYiaHVDOPerPmdP4jM1Aua/o0YhSsNbUosuoSfaQErxDBzYxHEnDPKJC4eC0MUEwv0UHNuqA+sWeDqjrBxYTykQKSSB0Oudw/jHNCrm1YJTnNYKWP0/3elwZjYQADzUIG6rhLGgxTyoSyTBEaKAL+JPGQ5baQcsFwJSCAbAgrWOBUK1mziMTtHuHljqCE3tSYJtIsAYivNFeQvcwiTMewUMddbWiP+yQMUhnv2lhBu9EggHL8f9lAYcyURdQw9fjYMoYnwRVyluZXMiTwzDLGbBOvh8ZmhxQgxEkL60LAnw5jvSM8cooaeU45BMCJ+yoKVIcjccKYePMQX4gpB/UIYqwHzGeFHHgirLcKuLJXbLP49fxCsDHNG+NHDSqIONGj0ujInFj/pzaU3tNWQYMQfYi+JWhgy5BcRx/zX55v+rB9/04MEel/hiQBPiXPGudu39L9l4jNcEeUpMd+WubBpmDDlkR+cXgljqC91+2TY2WGIRoaMc27ScOMx8RnWL4UhbOmdhQPi/Dth+4TRrt0Rhg9w5VxzzjlfKVE2wp7hx4+H/TiMBymHhHHe++qZLmXhRwkMGwF+t3jAxXVlkoAE6k1AwRrnX8Fa74ugVe3HxcY7w44SkQTaSICeUOZojgmjd5VevWT0mPU1HBPxwpDQ6fvxZXQzb0QYw+pIs4SxyBPCDuHFPikfhAnbETNJpLAfZZV9QYySBz4j0FIPHMdQp/LxlJn8LfcYsy89oGOaxufyXEnK6Fluswrv+YPv7FcWo5SDX/iHECuLs97y4H/Uk/16MocHeeAnPY9l8UY5SainfKkD/0u8+T++kU/5fMFkdI//kTd1oSx6PWGAJZ7kw2cYp0SvOL2x+MhnEnXh/LAvZeJ34sN3yu1tXirHEStwIy77i6+SG36UwLAR4CEMIxt48GSSgATqTUDBGudfwVrvi6BV7bl5Y3jeRiKSgAQkIAEJSKAyAjzMYug8o0JMEpBAvQkoWBWs9b4C+qk9vRH0dPQ1p1B4EpCABCQgAQm0nwDtL1MFnEvdfrbmKIFOI6BgVbB2WszqrwQkIAEJSEACEpCABCRQEwIKVgVrTUJ96NV04ZGhs/NICUhAAhKQwFAJ2P4OlZzHSaC7CChYFazdFdFtrg2LmrCK6FZtztfsJCABCUhAAhLomwALqB0cVn4tlLwkIIF6ElCwKljrGfkDrPW42I/XTLhK8ACBuZsEJCABCUigDQRcJbgNEM1CAl1CQMGqYO2SUB6eavAOx/vDjhue7M1VAhKQgAQkIIFeCPAe1lvDeOexSQISqDcBBauCtd5XQD+1R7DeG3aMlCQgAQlIQAISqIwAPaw3h51TWYkWJAEJ5EpAwapgzTU2s/Br+vBisTDm0pgkIAEJSEACEqiGAK+0GRPG+9BNEpBAvQkoWBWs9b4CrL0EJCABCUhAAhKQgAQkkC0BBauCNdvg1DEJSEACEpCABCQgAQlIoN4EFKwK1npfAf3UflRs59U2c0lJAhKQgAQkIIHKCEwbJS0UNm9lJVqQBCSQKwEFq4I119jMwq+lw4vLwvbNwhudkIAEJCABCdSDAA+Lzwv7ZD2qay0lIIEWBBSsClYvkBYEVoltD4WdICUJSEACEpCABCojMDZKujNsYmUlWpAEJJArAQWrgjXX2MzCL9/DmsVp0AkJSEACEqgZAd/DWrMTbnUl0IKAglXB6gXSggBDko4K20ZKEqiAwKxRxv5h94Q9HsZwOHr5uzHxjsVTwtYOY67admEnh80+iMpOHfvuEHZI2JyDOK63XcfHP68Luzhs8cnMa7CHTxkH7NHkMUv8nS3soLC9w6YYYGarxX6fDuOvSQLdQIC5q58I26UbKmMdJCCBySKgYA18H5wshB7czQSmicrNETZTN1fSumVBYO7w4qKwq5piZff4e07YjWEbZeFhe51YPbJ7IGz7MK6z9cN2C0OwDTRx3HFhXwxjcZahptFx4Oea7LeOvzw4qDJNFYVt0qw/755cIOzzYeeGDVSw0hu1Txjz7k0S6AYCPJDiAdZgfhO6od7WQQIS+F8CCtZgomD10pCABEaawJbhwL1hE0qOIMJuCqOXf4aRdrDN5dNzfFuP+g62CATrEWGXhCHyhpo49u6wnYaaQZuPw58Lwj4VNlDB2mYXzE4CEpCABCSQDQEFa5wKBWs28agjEqgtAUTKcmH0sJUTPW3Hh83YBxmGrx4T9r4W5LaKbQyroxePYaMMvyUhhjYOuzrskbDzw1Yt5UOZ/D7uGMbQ3a+E3R/GMFwENMciqG8OY9h8ElcrxmdENr2mrLDNEOcbwrYIY/grKQlWjkN4bh52WNjMYTCYEIaAxHcY9DbUtS/BOr55zBPxl57TNZpl9vZnXPwTsfpW2CthMBjT3JHjGJZNPvhPb3B6cEDZe4XB50NhZ4StFMZDBnqK1wv7SBgPIb7Q3EbP7cfD6FlGkHK+SXCD6eFh1J+hkEmwNndpDFM+KezBsK+FEROLpY3xd4Uw4mD55v/ge2jYus3j8JVyUm/ul+Jztw87L+HxowQkIAEJdDABBWucPAVrB0fwMLvOjSM3ndx8miRQFQGEBUPREXvXhiE0k9Dr6cOa8Q/E5oEtnEOsIMoYcswrIhBWzBs9IAyxyTwxRBY9egg8hCaJofAI3G+G7RmGYENI3RHGytnMu0RUIvIQs0nsMoT52TCEGvlyDX2mWRYClMSCZvSwMgR3+jDE6u1hvPMY3/AJcXxhGHNUl2geV/5TFqzzNzfgD8yODMM//ERU41NvvZXzxP+ZL/pC2BVhHwhjCCLMYcGQY/KB1TXNv/iL8Duz6SN12y9svjBEKEzZFyFL/RnWfX3Yx8I+HMb5uCWMIb+jm36dHn/vDOO841NZsLJa6sQwzt+uYcxzhi3+pnpvGp8Rs/hPGh/29eYxR8dfzilim7rA4+Aw/Dg1DF7EkUkCORFgODAPy7gWTRKQQL0JKFjj/CtY630RtKo9N/bcVPseOGOkKgKzRUGnhD0VhoCZEIYw6yvRa8d80FZzOBGa9PR9NCzNx6ZHDlFFT10ScohFFh2aGIYoo6cTUfZY2LJNB+gJpkcWgbpw83/Mn0Q8IYZIPOChV5I5uPQYkqjXWWGIQHpux4XdGoZgHRWGmEM4sXgSYhBRRrkIXL73lsqCFbGIkSe9u6mnmrImhlEPhGBvCdEHa3o5Sfh8VfOY8nxWHgp8OSz19iKG6T3mhhqRTYITPtAzm3rFGe7N67EYvkxdSQhZOKYeUc4Diz5xk14WrOnhxTrx/8Sb4+mR5iEE/Ej0sPNblXra14rPCFh6XUc396EsxCoPB1JKZSG607kqbfajBEaMAA+p+J3hoZlJAhKoNwEFa5x/BWu9L4JWtacX6L6wY0UkgYoIIGjGh7HoEj2LiL7U4zlUF/ihR1CWh/vS03d5GGKznOgNRTgy3BQRxsq9E8NSDy+i9rSwE0sHIaTYJwmhDeMzYioNPU67kje9qAjLcWF9CVYWW6HHkmGrlNdXSoIVkY2QRijfEbZMjwPeH9+58e1rxWV6MLnO92wex4Oqu8KSgE3Z8X/y4QEA6ZQweknLPvIg4LKw8nxYxCZCfbOSXwyPvjJsg+b/WgnWHtVpfGWRrs+GESeknoIVFvTipvzZh+HXiNrUK5vyRfxyXhh2bJJALgT4bUojEXLxST8kIIGRIaBgDe4K1pEJvk4olRv8R8O4aTdJoGoC9EoyfxNRxPD0oSaEInmUV5DdM76/GEZPKHMqk/0gPtO7i/BCsPKwhqHCKSE2mUvJkN2UFo0PiEaG4ZLGhyFGe86rnRD/+2oYvZDjmvv01sOKEOWVLggyGPSVegpW8vpR2JNh5Tp9N75/O6yvYa89BWsSe2n4ciqfXmyG9zKEmJ7PU8JgUV7FlPm79K5uW3IaAc8QX/6mhK/0cCdGfQnWtD8PEOBL+dSN+acMu06iuqdg5SEHPbb4Q8JfhhP/Loye6zIf4oC8Um9vyU0/SmDECPB7xcgQfltMEpBAvQkoWOP8K1jrfRG0qj03y9xkpuGQkpJA1QSYZ3hpWM9ew8H4gWBF/CHMUkIQMkyVuZMsBJSMnk3mQzI8lCGtCCmG06Zhw0mwloeVJsGahs6Pj/17ClaOp2eSIbRLho1r7tNKsDKEeDCClV5LxDYCu1wn5p/Suzm6D2g9BSuLLTEPtadgZT+G1O7TzOfU+EtPc0/BOjH+V25X+A1hLi5cUqLeDC/eqPmP3gQrCzmR8If5q/RsM1Saup0SdkdY6sntS7Dy4IEEf+IAcYrILvMhTxbQKtej5KofJTAiBPgNYtGwcSNSuoVKQAI5EVCwxtlQsOYUkvoigXoSYJ4jwzvLcyYhcWgYQ0wReUNNCBWGFpd7WOkBvCSs1cMYBMxQBCsCjZ4RFkxJiXmoiG+EIENox4X1NSQ49bCeHfsMRLBSD4a5MiKCPAf7gKmnYB0TedwRloRpqgP1YkhwGtqLgOyth3Vi/L8dghVBzFxcFk1iiPUiJZ4M3/1iGI04qb8eVvZhQSb4L1jKx48SkIAEJCCB3AkoWHvcWOR+wvRPAhLoTgIISIbn0vPFgkck5j4yhJZhuWkBn561R8SwYBH79pV6E6wMb03DjVN5CEUaBYaO8nmoPaz0itDTyUq2lEPCTwQWi/uQN/PD0yrBPRddGopgpecXsc9cUXpYWbwoJXp2qVfPhwFpe0/BylBoFnphjml6UIBwpJcUZmnxI3qnh1uw4stxYQhWVhAmITiJCXqrObekgQjWMbEf85YR2umcU6/EJ/0vcfGvBCQgAQlIIAcCCtY4C/aw5hCKefrAjTM9PGll1Ty91KtuIIA4ZBVf5h3eGcaiPyyEg/jq7ZUuqc5rxwfmMzKvsq9Ezya9tMuVdmCIKD2G54cxNJWeSeZUTgxLK/MyJI9hqQi1NCSYxY0YIoyISgn/WCApLcTE/EkWMcJ3Vuwlf74ztDkNUWWYK0OSEUsIpcPDqDeLCXHdsSIvPadl4VkqsvGR/Vip96qw1Gu4SnxGbFKXO8KububDENwZembQ/E6P7DfCGDqcEj2Y1Id8OA83hOE/ixglFswLhkVZCFM+C1yVF11iuC3id5NS/tQbwU6vJwnOSZQivhH7zIUl0XMMXx5eXBXG/GHqQw8083V3CWM49INhDOcmIWDJD39SopebBxvkCxfqRX58Z+ElxLFJArkQIF5HhzlUPZczoh8SGDkCCtZgr2AduQDMvWRuWumNKA9tzN1n/etcAggwBAXik/mg/DYxfLZVotcNcdJqyDCCkgWHuPnrmYhx5rMy7JT3viZByX6pJxRxmRKiDxFU3g9hi99pgR/mZTLXExFEbysCi7mxrPqZEq+vQcDRW8mNKaKR4+htnTKMXk98pgewr8R++EEZ5R7oxeL7bmH0QlIu/rJvXwnByTDfsn/si3DcIeyYMMRsT8a83oa8y0IPgc1DhDGlwsgHPvxNiXqPD2MoM4keZ84j9UXAk8fqpf2pJ3FxcNhaYdSH88q548EDgh1hnPJjkS7y603wUw8eYlAv/qbzVirOjxIYcQI8HOPBGL9LJglIoN4EFKxx/hWs9b4IWtWeno1Hwhj2Z5KABAZGAOFJ7+H7B7a7e0lAAh1MgGH/PHzi4Vc7Ew+tGCXACA+TBCRQbwIK1jj/CtZ6XwStak/vCcPsGHZokoAEBkaAYa4Ph7GQlEkCEuhuArwGiuHqXPO0lTzobUdCsN4RNrEdmZmHBCTQ0QQUrHH6FKwdHcPD6jxD7pijlhY2GdbCzFwCXUKA4amI1bQ4UZdUy2pIQAK9EGDO+sthRdi7Yc+EMY+bVc9brfLdH0x+R04JYz67SQISqDcBBWucfwVrvS+CVrVnLtmiYSwEY5KABCQgAQlI4L0E6GH9dhiCtWy/ie/MZT8ibCjzpJnPzeri5bnfspeABOpJQMGqYK1n5FtrCUhAAhKQgAQmmwCLsn2rF8GaxOu/Yxuv7GJVa1a3ZmE1kwQkIIHBEFCwKlgHEy+125cVWFmdk7k0S2syMAaMAWPAGDAGJsUA02Z4rdL3WgjWcq/rq7Efr2g6vnnvtUz8ZdVqVugerPGarnYv9FS7mxwrLIEOIaBgVbB2SKiOjJsMdeJdhSwmocnAGDAGjAFjwBj4/zHAYksMB357gIK1IV6nmGKKYuqpp34jPrOo4b1hvKe5NyN/rOe2B6abbjpWEN5/ZG4NLFUCEqiYgIJVwVpxyHVWcQjW74bxahve6ajJwBgwBowBY8AY+P8xcHm0jb8chGB9PQTrC8sss0xxzDHHFOedd16fdv755xdYz31OOumkYoUVVngnyuQ9rSYJSKD7CShYFazdH+WTUUMWirgj7ODJyMNDJSABCUhAAt1KgHaSlYF7LrrU8/tzsc8FYduGHb7RRhu9+9prrxVDSW+++WaxxRZb/DnyOapboVovCUjgPQQUrApWL4kWBFaLbY+HnSolCUhAAhKQgAT+h0BfqwQjWN8MuyOMOatrlY7ceYMNNiief/75oejV4tVXXy023nhjBavBKIH6EFCwKljrE+1DqOn8ccyeYeOHcKyHSEACEpCABLqdwIZRwRfCyj2qP4rvvIuV9pN2tGfaTcHa7WFh/STQVgIKVgVrWwPKzCQgAQlIQAISqA+B5aOqaUjwQ/GZEUlbhE3TAoGCtT7xYU0l0A4CClYFazviyDwkIAEJSEACEqghgemjzh8OOyaMV9QMJClYB0LJfSQggURAwapg9WpoQWDK2EZjPK2UJCABCUhAAhJoCwEFa1swmokEakNAwapgrU2wD6WiC8ZBB4Z9YCgHe4wEJCABCUhAAv9DQMFqUEhAAoMhoGBVsA4mXmq376pR46+FnVS7mlthCUhAAhKQwPAQULAOD1dzlUC3ElCwKli7NbbbUq9VIpcHw05oS25mIgEJSEACEpCAgtUYkIAEBkNAwapgHUy81G7fZaLGnwvbr3Y1t8ISkIAEJCCB4SGgYB0eruYqgW4loGBVsHZrbLelXjNHLvSyLtqW3MxEAhKQgAQkIAEFqzEgAQkMhoCCVcE6mHhxXwlIQAISkIAEJDBZBBSsk4XPgyVQOwIKVgVr7YLeCktAAhKQgAQkMHIEFKwjx96SJdCJBBSsCtZOjNvKfJ4xSlo2jNfbmCQgAQlIQAISmHwCCtbJZ2gOEqgTAQWrgrVO8T7ouiJWrwz76KCP9AAJSEACEpCABHojoGA1LiQggcEQULAqWAcTL7Xbd+Wo8X1hx9au5lZYAhKQgAQkMDwEFKzDw9VcJdCtBBSsCtZuje221GvVyOXRsJPbkpuZSEACEpCABCSgYDUGJCCBwRBQsCpYBxMvtdt3saZY/VDtam6FJSABCUhAAsNDQME6PFzNVQLdSkDBqmDt1ti2XhKQgAQkIAEJZEhAwZrhSdElCWRMQMGqYM04PHVNAhKQgAQkIIFuI6Bg7bYzan0kMLwEFKwK1uGNsA7PfYrwf6qwKTu8HrovAQlIQAISyIWAgjWXM6EfEugMAgpWBWtnROoIeTlXlLtt2OojVL7FSkACEpCABLqNgIK1286o9ZHA8BJQsCpYhzfCOjx3XmvzQNjxHV4P3ZeABCQgAQnkQkDBmsuZ0A8JdAYBBauCtTMidYS8XEXBOkLkLVYCEpCABLqVgIK1W8+s9ZLA8BBQsCpYhyeyuiTX5aMeXwk7pEvqYzUkIAEJSEACI01AwTrSZ8DyJdBZBBSsCtbOitiKvZ0jyvtA2IoVl2txEpCABCQggW4loGDt1jNrvSQwPAQUrArW4Yksc5WABCQgAQlIQAK9EFCwGhYSkMBgCChYFayDiRf3HQCBaQawj7tIQAISkIAE6kpAwVrXM2+9JTA0AgpWBevQIqcmR00b9eTVNrP0U1/e17pA2GZh+4bNVxM+VlMCEpCABCQwWAIK1sESc38J1JuAglXBWu8roJ/aLxXbzwvbvY/9Zo7/Lxu2V9j1YS+E3Ra2uVQlIAEJSEACEuiVgILVwJCABAZDQMGqYB1MvNRu33FR43vDju5R83nj+/phZ4Q9FfZy2KfCeG/rlGH0uJokIAEJSEACEvhfAgpWo0ICEhgMAQWrgnUw8VK7fVeKGt8VdlTYqLAlw3YLuyHspbC7wz4SNmftyFhhCUhAAhKQwNAIfGTDDTcsXnrppWIo6Wc/+1mx8cYb/7nZNg/NA4+SgAQ6iYCCVcHaSfFaua8IVob4XhH2ibBnwn4YdkEYPawMCUbITt3DM3pYp2tuYztzYctpqtI29uN7ShzL/hyHsb2c6MFN23orm0WfytvLvb0cW/aLfcvbex7L/n351fNYGKRyp++lTuW8qV85b+qf/OLYngtXlfNmv/KxPevUTtbl89Qb6/J5Ynt/rMvnsV2sKbdV/PTHumfsDpQ156kn657HDiauB8OaGGgn61bXRH9xXY4BPpf96hnXPVmXY6BVXA/kmugvBsqx107WrepEbPb8DRko64HE9UBZs99AWVNuf78/PVkP9Le+vzr19ltfzrs/1mUePdugVr/XvZ2n/uK6/Fvfyq+evz/EA77svd566xXPPvts8c477xT//Oc/G/aXv/ylePPNNxv21ltvFX/7298mbUv7sP8Pf/jDYtNNN3078uFhskkCEuh+AgrWOMcf7P7zbA0HSYBGlYWWmLv6fFgR9r0w5qqyoBLbEazHNe2j8Zfe15TmiQ/7hx0bdnLYLqVt3EgwdJhjjw87tPk97TJTfKAX95iwE8I+Fla+IVgivh/RPPbIph9pOzdSxDNDmMmf7aNLZeM7+ZEvvrFIFDfDKW3cPIZj2WdMaRv5wOOkZtnb98h79fh+eLPcU+PvKqVjKQO/YEG+5FNemGpsfD+kdCzvvk2Jm5v3Ncvl2APCYJAS+fA/fCb/nUrbOE+rNf2FNWXwECKldI4Ta/Ip32DjFww59pNh65S24xcMYJ22lxfnYhGug8Lwmfw3DeMmLyW+c7OVWC9U2jZbfCbWTmzmvV38nbW0fa34TAxw7Clh5fcEz9D0K7HeNb4zhD0l5lwf2jyW8wTblKjTJmHp2P3i86Kl7QvG5wNL5VL/lIi9NcNggX08bIXS9tHxmTrBgnrtU9rGx2XC4MGx1I06phtwbnp3DEusD4vPM5aOh93BYbBmH+K4LKaZU55Yw2z+0rG8axlfEusJ8bl8HteN75z7xBp+KeEDfiVejLZgkbaUqP+hzWNhzW9GSvjH9ZeOxYdFStv5TPykcsvtFKzXDqO+8GK/sl+zx/e9w7jGuV7hnhJMlwtLLLlm1yhtJ0a5MUjbeVBX/o3Ar0Ob5cKU+CkLvK3ie2JN+XOX8oYNMYXf1GvrsPJ53CC+c72la5nrLyUeDn44LPHCx/LIFq5r4oJjYQ2flBB9W5aOhU35elssvhOviTV+pcRvK+ctxQe/n0uXtuMDdUqs+e1OCdZcm8Q85wn/Vi1t51qlbUi/P/hQjlv84hiOhemGYem3nry3CUu/9fwlllOiDeL3LLGm/pSX0kbxIbEmRsq/qcQ/vxvpt54YJ6ZSog7l33p++1MifuCXztOe8ZnfwpQoh1i/ffHFFy8OP/zw4sILLyzOO++84pxzzikOO+ywYqeddmrYHnvsUZx44onF+eefX5x77rmT7IILLijOOOOMYvz48f+IfGBjkoAEup+AgjXOsYK1+wN9sDWkYefG/bqwn4fRMN4Xxk01N1jcLOwR9mzTbo6/3GyltFR8uD7sqbDnwy4ubeNmc0LYN8Posb2/Rwxy0/G5sCfDvhV2a1j5JoYb6Iebx349/rIqcbph5GaGebVPlLaXb87xn/zIF9+4ySkLIW5OyRPfngsr34ggDD8f9p0w6n1WWPlGBKH4UPPYl3rUiTJOD3u+WTb54EtK4+PDPWFPh3EsN0MpcQOEGEnl3hCfYZAS+dzULJf8zy9tgwc3W3DGKKN8M8pN3RVhsKa+5F1+OMAN4qPNYx+Jv5zztB2/YJBYfy0+l2/OESt3hMGa/BE93HSnxPfHwqgzPMtCGmH4xbBvN8v+dPwtC3xuJokBztOLYdyMpoTYPTPs+WbZxFL5xh8xRywn1twkp4Qw4Qb5u81jif+ymOHm+5ZmueRP/VOCC4KNusCaofQIxZSIwy+FwYJ6XVPaxvX0/jB4cCx1o46pJ4tr7pywbzS3Pxh/yzfQ4+I755ayOR+HhpWFEILg8TDqTP5lcYcA+3LTJ7adFlY+j3vGd849rF8IKz9M4Vo9Nyzxuig+Lx6WEvX/arPcl+Mv12pK+IdgeD6MGIFHWczwmdEdqVyun5RgTSxyHHW+I4zfq5QWjg9Xh3GNc93APSUeyPCwJMUt1yw3AunhADE6MQzW5H1vWFnA8wCI3yy2wZT4KQtaBFJiTfllIYQAI6a41jgXiJqyyNo/vnO9Uefnw8aX/EbsXhCWWPN5TGk74o24SHHNQ7GUYI2wIU+YXRVWvt540HJHs1yuJ8RpSvy2IrCIWerM72f5IQ8PdL4SRl3x7fLSsbDm2iTmia0Hwj5U2j46PtM2JNZcM2VRiV/UiWO5NhCgiG8S18YpYYk157P8wIM26MYwWMOT+vPbkBIPORJrYqT8m8oDrkvD0m8uMU5MpcQDNOImsSZ+UiJ+OK/Ph8Ga37Hyg6v14vsdU0wxxYtTTjnl61NPPfUrM84447fCngv79lRTTfX92PYaFp9/MmrUqOfj/882t7NPsuenn356uB5YKtuPEpBA9xJQsMa5VbB2b4APtWbcvHFTyI3YkmHchHGz8r2wC8PoGUGscSPHjQP7lnvm+Iyg4eYDSzcZyR/2T9sooyySKLt8bPlmkOMpj/+l48u9G2ynrLSNv+lGlG34VT4WIVzezvfysUkwcGxPvyinfGzixfHcIPasU9kv6lfmVa4Tx5YFOmVTx+QXx5b9KteJYyeHNXmXE+WUeQwn6zKP/ljjRzqPk8u6Z53KMdCKdW9xXT5P/cV1K9YcW/YLHuX4YfvkxHV/12o573Kd+mONj+W8e14TPevUinXPa6JnXPdk3epa7cm6v9+fVqz7+/3p+RvSinXP359ynYivnnUq+zW5rIf6+0Ps9fz9Kf9eTy7rnr8/rX7r+2Pd6re+P9Y926/B/Nb3jOu+WFMGxrlMlv5X/lve3vNzuZ3p8fPtVwlIoIsIKFjjZCpYuyii21wVblDpZUS08nR6+zB6U38UdnfYXmFjmo1tm4s2OwlIQAISkEBtCSB8x4WVR4jUFoYVl0DNCShYFaw1vwRaV59hYwwBO7S0G0/+GVJ4ahjDrb4f9pkwhgQjan3ia0hJQAISkIAEJo8Aw8mvDWNKhEkCEqg3AQWrgrXeV0A/tV8ltjPviPk/PRNPf5nrw9xN5vXR60rvK3OUeg7fE7IEJCABCUhAAgMnwDxc5nGfN/BD3FMCEuhSAgpWBWuXhnZ7qkUP6+1hLJDTV2JuDwtNsCANi1N8PswhTO3hby6dT4C5aFwf5XlsI1UrfGDeeZpnyEOn0WE950yX/WPEBFMDes71Hak6WK4E6kKAHlYWtGIEk0kCEqg3AQVrnH/nsNb7ImhVe3pQPxzGyoYDSSxywQ2xw4IHQst9up0AK8Bys3lDWHlF6ZGqNz7gCyvI8qBp7bAvhJVXSO3pG6sknx22zkg5bbkSqCkBVgLfIay8AnZNUVhtCdSegII1QkDBWvvroE8AabXg8qqQ0pKABPonwLWzbdgPw3g1Svm9l/0fPTx78GoOhvjzKgweKvH6Gh5GzdOiOMTs58LGD49L5ioBCfRBwPbX0JCABBIBBauC1atBAhKQQNsJLB85MkQesXdVP4I1vbam56uSklPp1UW9jVxIr7lI+zLcd3QYvbs9hyIjmnlfK+/7ZIhver1LOV8+895gFlBjxAQ9q7xftfyeZcrieMqhF4ghw+XXfvCAC7/4y7ae25Ov/pWABCQgAQlIoH8CCtZgZA9r/4FS1z24CeXG1B7WukaA9R4KAUTcIWHHhO0Y9qWwVj2sCEQWNjs5bKZeCmQoL+8/ZihveS4p5ZwZdlBTFC4efz8V9kzYT8LuCtsuLM1ZTYJ1v/gf1zZi9MqwNCSYFcA/FvZk2Lea/tNIXhBWFqwLxnfmtX8j7KWwq8LoqU3zdBlGfFLYPmGXh50VxlQBkwQkMHACqf11is3AmbmnBLqVgII1zqyCtVvDe/LrtWhkcZwxMvkgzaFWBLaI2l4WtnTYVmFXh7USrKNj++lhzHelV7Rnoofy2LCJYfScpsSiaPSYUh558PoLbLUwxCuC8aGwzZoHIHzZPwnW9zW/b9zcvkf8vS4Mkb1IGHNcEZx3hq3V3GfO+IvI/WIYwpTfiMPCvhy2YXOfFeLvNc288YHVTlst7NQ8zD8SkECJwHzxmQdDPKgySUAC9SagYI3zr2Ct90XQqvbjYuPdYUeLSAISGBABhCI9ih8JS/NY+xOsafVeeiHLQ2vLBW7UvBZXbf6TY3YNQzyOCeM7YhZxmxI9twjHw8MY3ssiamXBOj6+89oM/tK7igilZzTlQZ4Hh/G6KsQraZtmnknk8j/KYXXwU8IYjbFk2E1h9Pam3t3m4f6RgAQGSIDr6MYwFj0zSUAC9SagYI3zr2Ct90XQqvYrx8avhtHLapKABFoTQOjtG8YwXQQgiR7Wq8LoLZmcRA8twne3MIQkPbG8n/ETpbJS/ohEfGEeKuL50Ob3vgQrPaMM8+UVVnv1cHLL+F4eNszDK+a00ntMHSkHMXxGGL3Kc4Vxo83cXQS1SQISGBoBRibcGuZ7WIfGz6Mk0E0EFKxxNhWs3RTS7a1Leg/rke3N1twk0JUE3t8Ud+PjL4sOIeQYXsu7FBFxkzMXjfw+HsaQ39FhvOuYXkx6XlNCRDIP9uEwVif+cdjvwxCZHN9KsDK0l9EUe/Y4M8xvvSQsvdqKubY/D3s17Ecl+018ZlgwQ4a50T4/jPmzJglIYGgEfA/r0Lh5lAS6kYCCNc6qgrUbQ7s9dWLeGTe5o9uTnblIoGsJMBSW4bN/DmPBoyTmftX8H4sTpdfJDBUCohFRuGJTDNKLyVxTEoKY+acISuaWskrxKmEM1T00jN7QVoKVV94wV3XPHs7RQ8xQ4bQwE6Mt6HFl/itlJKN8XpND7y//U7D2AOlXCQySAAus8cqp8rz1QWbh7hKQQJcQULDGiVSwdkk0Ww0JSGDECCDUWNSIlXdZURcbH8ZiSfeH0ds4JqyvOar8v69tqVLkf3HYLmEMO+b1NGmO6IT4fF/Y6iUCDAmmd5eFW+hh5ea3rzmso2Mb8+XojS3PO2XV4PIcVubm4sMypXJ6fmTRJQVrC0BukoAEJCABCQyCgII1YClYBxEx7ioBCUhgEATSKsGIxb4Siy2xMBJD78uLJvXcH9GJgGQhJRZLSiv3sh/zUL/W/D1nKDJzUnndDb2mp4UhXulhRdQidBHHDCe+I4yhzHxnPizzWDcNIw96Va8PYx77mk1n6Im9NoyhyeTHMGeGADOHNc1ZXS4+XxC2ffMY/0hAAhKQgAQkMHQCCtZgp2AdegB1+5EMI2So3+QuGNPtnKyfBPoiMCE2IDARkH0lxORnw+iV7O99pfTgPh32hTCG4KbE+1t59+sTYc+FTQxD0DKH9tkwekXpfb0jLAnW8fEZgcrwXhLzT08N+26zjFPi70fDLg1bv7kPwpa57byG57GwF8PotUVwL9bchx7WiWHOYW0C8Y8EhkCAB1RcU61eiTWEbD1EAhLoQAIK1jhpCtYOjNyKXF42ymH+GnPvTBKQwOAJIEARq8xH6ysx/xXxSS8sQ4tbJW5ieXUOvZs996V3lmuW97Byo0u+7M/wXR48IWq5+UUgk9ifHtNyr+7o+M4cWV6fM39zG7717PlF3CJcmS9LmWWhzZBi/OtPfDfd8I8EJNALARZCY8EzV+k3PCQgAQVrxICC1QuhLwIs2vJg2AkikoAEJCABCUigMgKsBH5H2MTKSrQgCUggVwIKVgVrrrGZhV+8h5U5bywcY5KABCQgAQlIoBoCzA1nwbNzqinOUiQggYwJKFgVrBmH58i7xvBB5sVtPvKu6IEEJCABCUigNgQYis8c8h1qU2MrKgEJ9EVAwapg9epoQYAVQGcNY/ElkwQkIAEJSEAC1RBgDjrzwFutHF6NJ5YiAQmMNAEFq4J1pGPQ8iUgAQlIQAISkIAEJCABCfRKQMGqYPXSkIAEJCABCUhAAhKQgAQkkCUBBauCNcvAzMWpBcKRfcPSexpz8Us/JCABCUhAAt1MgFdH7R62dTdX0rpJQAIDIqBgVbAOKFDquhPvWbwj7Mi6ArDeEpCABCQggREgsESUeV3YZ0agbIuUgATyIqBgVbDmFZGZecNrbe4P87U2mZ0Y3ZGABCQgga4mwGttbgk7t6traeUkIIGBEFCwKlgHEie13WfVqPnXwk6sLQErLgEJSEACEqiewNgo8q6wC6ov2hIlIIHMCChYFayZhWRe7rCk/mphi+fllt5IQAISkIAEupoAr7NhlNPSXV1LKycBCQyEgIJVwTqQOHEfCUhAAhKQgAQkIAEJSEAClRNQsCpYKw86C5SABCQgAQlIQAISkIAEJDAQAgpWBetA4qS2+0wbNZ87bNbaErDiEpCABCQggeoJTB1F8mqb2aov2hIlIIHMCChYFayZhWRe7iwZ7pwVtktebumNBCQgAQlIoKsJLBi1OzXsY11dSysnAQkMhICCVcE6kDip7T5pleCTakvAiktAAhKQgASqJ5BWCb6w+qItUQISyIyAglXBmllI5uXOKuHOA2HH5+WW3khAAhKQgAS6mgDvYb097PyurqWVk4AEBkJAwapgHUic1HYfXmdzWtiOtSVgxSUgAQlIQALVE5i/+bB43+qLtkQJSCAzAgpWBWtmIZmXO9OFOwuEzZ6XW3ojAQlIQAIS6GoC00TtEK1zdXUtrZwEJDAQAgpWBetA4sR9JCABCUhAAhKQgAQkIAEJVE5AwapgrTzoLFACEpCABCQgAQlIQAISkMBACChYFawDiZPa7sM74LYIW7m2BKy4BCQgAQlIoHoCvP9807C1qy/aEiUggcwIKFgVrJmFZF7urBju3Bx2WF5u6Y0EJCABCUigqwmw6OHVYad3dS2tnAQkMBACClYF60DipLb70LN6f9ixtSVgxSUgAQlIQALVE+C1NreEnVt90ZYoAQlkRkDBqmDNLCTzcme1cOfxsFPzcktvJCABCUhAAl1NYOnmA+NLurqWVk4CEhgIAQWrgnUgcVLbfeaOmm8ftmZtCVhxCUhAAhKQQPUEZositw0bX33RligBCWRGQMGqYM0sJHVHAhKQgAQkIAEJSEACEpDA/yOgYFWwei1IQAISkIAEJCABCUhAAhLIkoCCVcGaZWDm4tRU4ciMYdPl4pB+SEACEpCABGpAYMqo4wxh09egrlZRAhJoTUDBqmD1GmlBYJHYdnjYVlKSgAQkIAEJSKAyAvNESQeFcaNqkoAE6k1AwapgrfcV0E/tV43tj4SdJCUJSEACEpCABCojMDZKuifsospKtCAJSCBXAgpWBWuusZmFX6uEFw+GnZCFNzohAQlIQAISqAcBBOsdYRPrUV1rKQEJtCCgYFWweoG0IECDeWHYXlKSgAQkIAEJSKAyAgtHSWeHHVZZiRYkAQnkSkDBqmDNNTaz8Gum8GL5sIWy8EYnJCABCUhAAvUgwGJLy4QtWo/qWksJSKAFAQWrgtULRAISkIAEJCABCUhAAhKQQJYEFKwK1iwDU6ckIAEJSEACEpCABCQgAQkoWBWsXgUtCMwS21h4ySFJhokEJCABCUigOgK8g3VcGGtJmCQggXoTULAqWOt9BfRT++Vi+5fDeBecSQISkIAEJCCBagjwoPjyMFfpr4a3pUggZwIKVgVrzvE54r6tHB7cF3bsiHuiAxKQgAQkIIH6EFgqqnpL2Ln1qbI1lYAE+iCgYFWwenG0ILBabHss7BQpSUACEpCABCRQGYGlmw+ML66sRAuSgARyJaBgVbDmGptZ+LVIePHJsK2z8EYnJCABCUhAAvUgMG9U85Cwj9SjutZSAhJoQUDBqmD1ApGABCQgAQlIQAISkIAEJJAlAQWrgjXLwNQpCUhAAhKQgAQkIAEJSEACClYFq1dBCwJTxLZpwqaSkgQkIAEJSEAClRFI7e/UlZVoQRKQQK4EFKwK1lxjMwu/mEPz4bB1s/BGJyQgAQlIQAL1IDB7VHP7sE3qUV1rKQEJtCCgYFWweoG0ILBKbHsozPfAGSYSkIAEJCCB6giMjaLuDJtYXZGWJAEJZEpAwapgzTQ083ALwfpA2PF5uKMXEpCABCQggVoQ4D2st4edX4vaWkkJSKAVAQWrgtUrpAWB5WLb1WEHSUkCEpCABCQggcoILBolfS7MEU6VIbcgCWRLQMGqYM02OHNwbLZwYoOwZXJwRh8kIAEJSEACNSEwU9ST9SNWqkl9raYEJNA3AQWrgtXrQwISkIAEJCABCUhAAhKQQJYEFKwK1iwDU6ckIAEJSEACEpCABCQgAQkoWBWsXgUtCIyKbQuGzSElCUhAAhKQgAQqIzBtlLRA2NyVlWhBEpBArgQUrArWXGMzC7+WDi8uCdsnC290QgISkIAEJFAPAgtHNc8NO7we1bWWEpBACwIKVgWrF0gLAivHtnvDjpWSBCQgAQlIQAKVEVgySro57JzKSrQgCUggVwIKVgVrrrGZhV+rhhcPh52YhTc6IQEJSEACEqgHgbFRzbvCLqhHda2lBCTQgoCCVcHqBdKCAA0mjeWeUpKABCQgAQlIoDICDAk+K+zQykq0IAlIIFcCClYFa66xqV8SkIAEJCABCUhAAhKQQM0JKFgVrDW/BKy+BCQgAQlIQAISkIAEJJArAQWrgjXX2MzGrynCE8wkAQlIQAISkEB1BGx/q2NtSRLImYCCVcGac3yOuG+zhQcbhS034p7ogAQkIAEJSKA+BGaOqq4fxuKHJglIoN4EFKwK1npfAf3UflxsZ5XCo6UkAQlIQAISkEBlBHitzQ1hZ1dWogVJQAK5ElCwKlhzjc0s/OI9rA+EHZ+FNzohAQlIQAISqAeBpaKat4WdV4/qWksJSKAFAQWrgtULpAWBFWMbLy4/XEoSkIAEJCABCVRGYPEo6cthZ1RWogVJQAK5ElCwKlhzjc0s/Jo7vNgubM0svNEJCUhAAhKQQD0IsIbENmEb1qO61lICEmhBQMGqYPUC6YeAqxQaIhKQgAQkIIHqCdj+Vs/cEiWQIwEFq4I1x7jUJwlIQAISkIAEJCABCUhAAv9Hwapg9TJoQWCq2DZj2HRSkoAEJCABCUigMgJTRkkzhI2qrEQLkoAEciWgYFWw5hqbWfjFog+nhe2YhTc6IQEJSEACEqgHgfmjmqzQv289qmstJSCBFgQUrApWL5AWBMbFtrvDfA+rYSIBCUhAAhKojgDvYb0xzPewVsfckiSQKwEFq4I119jMwq9Vwgvfw5rFqdAJCUhAAhKoEQHfw1qjk21VJdAPAQWrgtWLpAWBFZpPeA+VkgQkIAEJSEAClRFgSs5VYUzLMUlAAvUmoGBVsNb7Cuin9lPH9lnDWPjBJAEJSEACEpBANQRY9HCWsJmqKc5SJCCBjAkoWBWsGYenrklAAhKQgAQkIAEJSEACdSagYFWw1jn+rbsEJCABCUhAAhKQgAQkkDEBBauCNePwHHnXGIq0fNhCI++KHkhAAhKQgARqQ2D6qOkyYYvVpsZWVAIS6IuAglXB6tXRggBi9dqwg6UkAQlIQAISkEBlBBCqV4SdXFmJFiQBCeRKQMGqYM01NrPwi9faPBjGy8tNEpCABCQgAQlUQ4DX2twedn41xVmKBCSQMQEFq4I14/AcedfGhQt3hx098q7ogQQkIAEJSKA2BJaMmt4YdnZtamxFJSCBvggoWBWsXh0tCCwQ2w4I21hKEpCABCQgAQlURmCuKGmvsG0rK9GCJCCBXAkoWBWsucZmFn7xHjjewTpdFt7ohAQkIAEJSKAeBKZstr+j6lFdaykBCbQgoGBVsHqBSEACEpCABCQgAQlIQAISyJKAglXBmmVg6pQEJCABCUhAAhKQgAQkIAEFq4LVq6AFAd6/+vGwzaQkAQlIQAISkEBlBOaOkvYP276yEi1IAhLIlYCCVcGaa2xm4ddK4cWdYUdl4Y1OSEACEpCABOpBYImo5vVhZ9ajutZSAhJoQUDBqmD1AmlBYOXYdn/YsVKSgAQkIAEJSKAyAryH9Zawcysr0YIkIIFcCShYFay5xmYWfiFYHwg7PgtvdEICEpCABCRQDwII1tvCzqtHda2lBCTQgoCCVcHqBdKCwIyxbZkw3sdqkoAEJCABCUigGgK8zmZs2JhqirMUCUggYwIKVgVrxuGpaxKQgAQkIAEJSEACEpBAnQkoWBWsdY5/6y4BCUhAAhKQgAQkIAEJZExAwapgzTg8R9616cIFhgPPPvKu6IEEJCABCUigNgSmiZrOFzZXbWpsRSUggb4IKFgVrF4dLQgwf+bCsL2kJAEJSEACEpBAZQQWjpLOCju0shItSAISyJWAglXBmmtsZuHXKuHFw2EnZuGNTkhAAhKQgATqQYAHxneFXVCP6lpLCUigBQEFq4LVC6QFAV5r89UwX2tjmEhAAhKQgASqI+BrbapjbUkSyJ2AglXBmnuMjqh/izbF6nYj6oWFS0ACEpCABOpFgPmrnwzbvV7VtrYSkEAvBBSsClYvjBYEpo1tc4fNKiUJSEACEpCABCojMHWUxIJLs1VWogVJQAK5ElCwKlhzjU39koAEJCABCUhAAhKQgARqTkDBqmCt+SVg9SUgAQlIQAISkIAEJCCBXAkoWBWsucZmFn7NE158KGytLLzRCQlIQAISkEA9CDAUeELY+HpU11pKQAItCChYFaxeIC0IrBjbbg07QkoSkIAEJCABCVRGYPEo6ZqwT1VWogVJQAK5ElCwKlhzjc0s/OK1NveHHZuFNzohAQlIQAISqAcBXmtzS9i59aiutZSABFoQULAqWL1AWhBYLbY9FnaKlCQgAQlIQAISqIzA0lHSfWGXVFaiBUlAArkSULAqWHONzSz8miO82DRspSy80QkJSEACEpBAPQjwOrn3h61Zj+paSwlIoAUBBauC1QtEAhKQgAQkIAEJSEACEpBAlgQUrArWLANTpyQgAQlIQAISkIAEJCABCShYFaxeBS0ITB3bGJY0g5QkIAEJSEACEqiMwFRR0sxhM1ZWogVJQAK5ElCwKlhzjc0s/Fo0vDjOGMniXOiEBCQgAQnUh8B8UVVeKbdHfapsTSUggT4IKFgVI14cLQisGtseCTtJShKQgAQkIAEJVEZgbJR0d9iFlZVoQRKQQK4EFKwK1lxjMwu/VgkvHgw7IQtvdEICEpCABCRQDwII1jvCJtajutZSAhJoQUDBqmD1AmlBgBeXnxO2m5QkIAEJSEACEqiMwEJR0hlhH6+sRAuSgARyJaBgVbDmGptZ+MViS0uGMZfGJAEJSEACEpBANQSmi2IWD1uwmuIsRQISyJiAglXBmnF46poEJCABCUhAAhKQgAQkUGcCClYFa53j37pLQAISkIAEJCABCUhAAhkTULAqWDMOz5F3bXS4sG4Yiz+YJCABCUhAAhKohsBMUcxaYStUU5ylSEACGRNQsCpYMw7PkXdt+XDhurBDRt4VPZCABCQgAQnUhsBiUdMrw06uTY2tqAQk0BcBBauC1aujBYGVY9v9YcdKSQISkIAEJCCBygiwSv8tYedWVqIFSUACuRJQsCpYc43NLPxaLbx4POzULLzRCQlIQAISkEA9CCzdfGB8ST2qay0lIIEWBBSsClYvkBYEWE7/o2GbSEkCEpCABCQggcoIzB0l7R02obISLUgCEsiVgIJVwZprbOqXBCQgAQlIQAISkIAEJFBzAgpWBWvNLwGrLwEJSEACEpCABCQgAQnkSkDBqmDNNTaz8GvK8GK6sGmy8EYnJCABCUhAAvUgMEVUc1rb33qcbGspgX4IKFgVrF4kLQjMH9uYQ7ORlCQgAQlIQAISqIzAnFHSrmFbVVaiBUlAArkSULAqWHONzSz8WjW8+FrYiVl4oxMSkIAEJCCBehAYG9W8K+yCelTXWkpAAi0IKFgVrF4gLQisEtseDDteShKQgAQkIAEJVEaA97DeHnZ+ZSVakAQkkCsBBauCNdfYzMKvZcOLL4TxahuTBCQgAQlIQALVEBgTxVwUdkw1xVmKBCSQMQEFq4I14/AceddmDRfWDFty5F3RAwlIQAISkEBtCMwYNV0tjAfHJglIoN4EFKwK1npfAdZeAhKQgAQkIAEJSEACEsiWgIJVwZptcOqYBCQgAQlIQAISkIAEJFBvAgpWBWu9r4B+aj9DbF8ibF4pSUACEpCABCRQGQHegb5Y2IKVlWhBEpBArgQUrArWXGMzC7+WCS8+H7Z/Ft7ohAQkIAEJSKAeBBaJavJKm6PqUV1rKQEJtCCgYFWweoG0ILBybLsv7FgpSUACEpCABCRQGQFea3NL2DmVlWhBEpBArgQUrArWXGMzC79WDS8eCTspC290QgISkIAEJFAPAmOjmneH8WobkwQkUG8CClYFa72vgH5qz/zVM8M+IiUJSEACEpCABCojwNzVU8IOrKxEC5KABHIloGBVsOYam/olAQlIQAISkIAEJCABCdScgIJVwVrzS8DqS0ACEpCABCQgAQlIQAK5ElCwKlhzjc0s/JoivJiyaVk4pBMSkIAEJCCBmhCw/a3JibaaEuiHgIJVwepF0oLAnLFt8zBWCzZJQAISkIAEJFANgVmjmE3C1q6mOEuRgAQyJqBgVbBmHJ4j75qvtRn5c6AHEpCABCRQPwLptTbn1q/q1lgCEuhBQMGqYPWiaEFgldj2QNjxUpKABCQgAQlIoDICCNbbws6rrEQLkoAEciWgYFWw5hqbWfi1QnhxQ9ihWXijExKQgAQkIIF6EFg8qvmlsFPrUV1rKQEJtCCgYFWweoG0IMAc1i3D6Gk1SUACEpCABCRQDQHmsG4a5hzWanhbigRyJqBgVbDmHJ/6JgEJSEACEpCABCQgAQnUmICCVcFa4/C36hKQgAQkIAEJSEACEpBAzgQUrArWnONzxH2bOjwYHTbjiHuiAxKQgAQkIIH6EJgqqsqw4JnqU2VrKgEJ9EFAwapg9eJoQWDJ2HZ22C5SkoAEJCABCUigMgILRkmnhX2sshItSAISyJWAglXBmmtsZuHXuPDinrBjsvBGJyQgAQlIQAL1IMAD45vCPluP6lpLCUigBQEFq4LVC6QFAVYHfjDsBClJQAISkIAEJFAZAd7DenvY+ZWVaEESkECuBBSsCtZcYzMLv5YLL64OOygLb3RCAhKQgAQkUA8Ci0Y1P+cD43qcbGspgX4IKFgVrF4kLQhMGdtGhU0rJQlIQAISkIAEKiNg+1sZaguSQPYEFKwK1uyDVAclIAEJSEACEpCABCQggXoSULAqWOsZ+dZaAhKQgAQkIAEJSEACEsiegIJVwZp9kI6kg7NE4auGLTaSTli2BCQgAQlIoGYEZoj6jgtbumb1troSkMD/ElCwKli9LloQWDG2saz+YVKSgAQkIAEJSKAyAotHSSx6eHplJVqQBCSQKwEFq4I119jMwi9ea/NA2PFZeKMTEpCABCQggXoQ8LU29TjP1lICAyGgYFWwDiROarvPSlHzO8OOqi0BKy4BCUhAAhKonsCSUeT1YWdWX7QlSkACmRFQsCpYMwvJvNyZP9zZM2x8Xm7pjQQkIAEJSKCrCcwRtftI2OZdXUsrJwEJDISAglXBOpA4qe0+vAduurCpa0vAiktAAhKQgASqJzBFFMk70KepvmhLlIAEMiOgYFWwZhaSuiMBCUhAAhKQgAQkIAEJSOD/EVCwKli9FloQ4Akvvaz8NUlAAhKQgAQkUB0B2l/MJAEJ1JuAglXBWu8roJ/aLxLbjwzbWkoSkIAEJCABCVRGYJ4o6ZAw5rGaJCCBehNQsCpY630F9FP7cbH9rjBXCTZMJCABCUhAAtURYJXgG8LOqq5IS5KABDIloGBVsGYamnm4tXK4cX/YcXm4oxcSkIAEJCCBWhDgPay3hp1bi9paSQlIoBUBBauC1SukBYFxse2esGOkJAEJSEACEpBAZQToYb0p7LOVlWhBEpBArgQUrArWXGMzC79GhRfMY50zC290QgISkIAEJFAPArzSZqGweetRXWspAQm0IKBgVbB6gUhAAhKQgAQkIAEJSEACEsiSgIJVwZplYOqUBCQgAQlIQAISkIAEJCABBauC1augBYHpY9uiYXNLSQISkIAEJCCByggwJHjhsPkqK9GCJCCBXAkoWBWsucZmFn4tE15cHrZ/Ft7ohAQkIAEJSKAeBMZENS8I87Vy9Tjf1lICrQgoWBWsXiEtCKwS2x4KO0FKEpCABCQgAQlURmBslHRn2MTKSrQgCUggVwIKVgVrrrGZhV++hzWL06ATEpCABCRQMwK+h7VmJ9zqSqAFAQWrgtULpAUBXmlzRNjWUpKABCQgAQlIoDIC80RJB4d9uLISLUgCEsiVgIJVwZprbGbh1zThxexhM2XhjU5IQAISkIAE6kFgqqjmbGEz16O61lICEmhBQMGqYPUCkYAEJCABCUhAAhKQgAQkkCUBBauCNcvA1CkJSEACEpCABCQgAQlIQAIKVgWrV0ELArz/bbewDaQkAQlIQAISkEBlBOaIkpi/ulllJVqQBCSQKwEFq4I119jMwq+Vwovbwz6ZhTc6IQEJSEACEqgHgSWiml8J+3Q9qmstJSCBFgQUrApWL5AWBHitzX1hx0pJAhKQgAQkIIHKCPBam1vCzq2sRAuSgARyJaBgVbDmGptZ+LVqePFo2MlZeKMTEpCABCQggXoQGBvVvCfsonpU11pKQAItCChYFaxeIC0IjI5t64UtLSUJSEACEpCABCojwOvk1g5bsbISLUgCEsiVgIJVwZprbOqXBCQgAQlIQAISkIAEJFBzAgpWBWvNLwGrLwEJSEACEpCABCQgAQnkSkDBqmDNNTaz8Gua8IKl9WfOwhudkIAEJCABCdSDwNRRzdnCZq1Hda2lBCTQgoCCVcHqBdKCwOKx7YywnaQkAQlIQAISkEBlBBaIkk4I27+yEi1IAhLIlYCCVcGaa2xm4RerBD8SdlIW3uiEBCQgAQlIoB4EWCX47rAL61FdaykBCbQgoGBVsHqBtCCwSmx7sPmUV1ASkIAEJCABCVRDgPew3hF2fjXFWYoEJJAxAQWrgjXj8Bx515YIFz4d9uGRd0UPJCABCUhAArUhwJBg3oF+QG1qbEUlIIG+CChYFaxeHS0IjIpti4TNJSUJSEACEpCABCojMG2UtFDYvJWVaEESkECuBBSsCtZcY1O/JCABCUhAAhKQgAQkIIGaE1CwKlhrfglYfQlIQAISkIAEJCABCUggVwIKVgVrrrGZhV+zhxcbh62QhTc6IQEJSEACEqgHgVmimuPDVqtHda2lBCTQgoCCVcHqBdKCAEL1xrBDpSQBCUhAAhKQQGUEFouSvhR2WmUlWpAEJJArAQWrgjXX2MzCr5XDi/vDjs3CG52QgAQkIAEJ1IMAr7W5JezcelTXWkpAAi0IKFgVrF4gLQgwFOnxsFOlJAEJSEACEpBAZQSWbj4wvqSyEi1IAhLIlYCCVcGaa2xm4dd84cWuYetn4Y1OSEACEpCABOpBYI6o5o5hm9ajutZSAhJoQUDBqmD1ApGABCQgAQlIQAISkIAEJJAlAQWrgjXLwNQpCUhAAhKQgAQkIAEJSEACClYFq1dBCwJTxrbpw6aVkgQkIAEJSEAClRGg/R0VNl1lJVqQBCSQKwEFq4I119jMwq+FwouDwpxDk8Xp0AkJSEACEqgJgbmjnvuGbV+T+lpNCUigbwIKVgWr10cLAqvGtkfCTpKSBCQgAQlIQAKVERgbJd0ddmFlJVqQBCSQKwEFq4I119jMwq9VwosHw07IwhudkIAEJCABCdSDAIL1jrCJ9aiutZSABFoQULAqWL1AWhDgPXCXhjEsySQBCUhAAhKQQDUEFolizgv7ZDXFWYoEJJAxAQWrgjXj8Bx512YOF8aFjRl5V/RAAhKQgAQkUBsCM0RNVwxbsjY1tqISkEBfBBSsClavDglIQAISkIAEJCABCUhAAlkSULAqWLMMTJ2SgAQkIAEJSEACEpCABCSgYFWwehW0IDBTbFs+jNfbmCQgAQlIQAISqIYA70BfJmzRaoqzFAlIIGMCClYFa8bhOfKuLRcufCnswJF3RQ8kIAEJSEACtSEwJmrKoofH1abGVlQCEuiLgIJVwerV0YLAyrHtvrBjpSQBCUhAAhKQQGUEloqSbgk7p7ISLUgCEsiVgIJVwZprbGbh16rhxdfDTs7CG52QgAQkIAEJ1IMAr5W7N+zielTXWkpAAi0IKFgVrF4gLQgwd+aEsO2lJAEJSEACEpBAZQTmj5KODNuzshItSAISyJWAglXBmmts6pcEJCABCUhAAhKQgAQkUHMCClYFa80vAasvAQlIQAISkIAEJCABCeRKQMGqYM01NrPwa4rwYuqwKbPwRickIAEJSEAC9SBA+ztV0+pRY2spAQn0RUDBqmD16mhBYO7Ytl3YmlKSgAQkIAEJSKAyArNFSVuHja+sRAuSgARyJaBgVbDmGptZ+LVKePFA2PFZeKMTEpCABCQggXoQ4LU2t4edX4/qWksJSKAFAQWrgtULpAUBBavhIQEJSEACEqiegIK1euaWKIFcCShYFay5xmYWfi0fXlwbdnAW3uiEBCQgAQlIoB4EFotqXhF2Uj2qay0lIIEWBBSsClYvkBYEZo9t7w9bQUoSkIAEJCABCVRGYOYoacOwVSsr0YIkIIFcCShYFay5xqZ+SUACEpCABCQgAQlIQAI1J6BgVbDW/BKw+hKQgAQkIAEJSEACEpBArgQUrArWXGMzC7+mDS/mCZs1C290QgISkIAEJFAPAtNENXm1HFNzTBKQQL0JKFgVrPW+Avqp/djYPjFsDylJQAISkIAEJFAZgYWipDPDDqmsRAuSgARyJaBgVbDmGptZ+LVyeHFv2DFZeKMTEpCABCQggXoQWDKqeXPYZ+tRXWspAQm0IKBgVbB6gbQgwHtYHwo7UUoSkIAEJCABCVRGgBFOd4ZNrKxEC5KABHIloGBVsOYam1n4tUx48bmw/bLwRickIAEJSEAC9SCwSFTz/LAj61FdaykBCbQgoGBVsHqB9ENgytg+hZQkIAEJSEACEqiUAG2v7W+lyC1MAlkSULAqWLMMTJ2SgAQkIAEJSEACEpCABCSgYFWwehX0Q8Cnu4aIBCQgAQlIQAISkIAERoaAglXBOjKR1yGljg4/1w1j8QeTBCQgAQlIQALVEJgpilkzbMVqirMUCUggYwIKVgVrxuE58q6tFC7cHuaiDyN/LvRAAhKQgATqQ2CJqOp1YZ+pT5WtqQQk0AcBBauC1YujBQFea/NA2PFSkoAEJCABCUigMgJLRUm3hZ1XWYkWJAEJ5EpAwapgzTU2s/CLHlYazCOy8EYnJCABCUhAAvUgQA/rtWGfrkd1raUEJNCCgIJVweoF0oLAPLGNi2QdKUlAAhKQgAQkUBmB2aOk7cPeX1mJFiQBCeRKQMGqYM01NrPwixWCpw7jXawmCUhAAhKQgASqIUD7O1XTqinRUiQggVwJKFgVrLnGpn5JQAISkIAEJCABCUhAAjUnoGBVsNb8EmhdfXpWpw2jl9UkAQlIQAISkEA1BOhhpf2dppriLEUCEsiYgIJVwZpxeI68a4uFCyeGMY/GJAEJSEACEpBANQTmi2KOCtuzmuIsRQISyJiAglXBmnF4jrxr48KFu8OOHnlX9EACEpCABCRQGwJLRk1vDDu7NjW2ohKQQF8EFKwKVq+OFgRWjm1fDTtOShKQgAQkIAEJVEbA97BWhtqCJJA9AQWrgjX7IB1JB9N7WD85kk5YtgQkIAEJSKBmBHwPa81OuNWVQAsCClYFqxdICwIs+DB32KxSkoAEJCABCUigMgIstjRX2GyVlWhBEpBArgQUrArWXGNTvyQgAQlIQAISkIAEJCCBmhNQsCpYa34JWH0JSEACEpCABCQgAQlIIFcCClYFa66xmYVfM4QXY8Pmz8IbnZCABCQgAQnUg8CoqCbzWBeuR3WtpQQk0IKAglXB6gXSgsByse2qsI9JSQISkIAEJCCByggsGiVdFnZ8ZSVakAQkkCsBBauCNdfYzMKvVcKLB8NOyMIbnZCABCQgAQnUgwCvtbkj7Px6VNdaSkACLQgoWBWsXiAtCPAe1nvDjpGSBCQgAQlIQAKVEVgySro57JzKSrQgCUggVwIKVgVrrrGZhV8LhRcHh22WhTc6IQEJSEACEqgHAV4pd0DY9vWorrWUgARaEFCwKli9QFoQmCq2zRw2vZQkIAEJSEACEqiMAO3vTGEsfmiSgATqTUDBqmCt9xVg7SUgAQlIQAISkIAEJCCBbAkoWBWs2QanjklAAhKQgAQkIAEJSEAC9SagYFWw1vsK6Kf2C8T2/cM2lpIEJCABCUhAApURmDNK2jNsm8pKtCAJSCBXAgpWBWuusZmFXyuFF3eEHZmFNzohAQlIQAISqAeBJaKa14WdWY/qWksJSKAFAQWrgtULpAUBXmtzf9ixUpKABCQgAQlIoDICvIf1lrBzKyvRgiQggVwJKFgVrLnGZhZ+rRJePBx2Yhbe6IQEJCABCUigHgTGRjXvDLugHtW1lhKQQAsCClYFqxdICwK80mZc2BgpSUACEpCABCRQGQFeZ7Ni2JKVlWhBEpBArgQUrArWXGNTvyQgAQlIQAISkIAEJCCBmhNQsCpYa34JWH0JSEACEpCABCQgAQlIIFcCClYFa66xmYVf04YX84TNmoU3OiEBCUhAAhKoB4Fpoppzhc1ej+paSwlIoAUBBauC1QukBQFWKTwnbDcpSUACEpCABCRQGYGFoqQzwj5eWYkWJAEJ5EpAwapgzTU2s/Br1fDia2GuEpzF6dAJCUhAAhKoCQFWCb4rzFWCa3LCraYEWhBQsCpYvUBaEOC1Ng+EHS8lCUhAAhKQgAQqI8AIp9vDzq+sRAuSgARyJaBgVbDmGptZ+LVYeHFy2A5ZeKMTEpCABCQggXoQmD+qeUzY3vWorrWUgARaEFCwKli9QFoQmC620WjOJiUJSEACEpCABCojwKJL84XNWVmJFiQBCeRKQMGqYM01NvVLAhKQgAQkIAEJSEACEqg5AQWrgrXml4DVl4AEJCABCUhAAhKQgARyJaBgVbDmGptZ+MU74LYJY7VgkwQkIAEJSEAC1RAYHcVsEbZeNcVZigQkkDEBBauCNePwHHnXVgwXbg47fORd0QMJSEACEpBAbQgsHjX9chjvYjVJQAL1JqBgVbDW+wrop/Yrx/b7w46VkgQkIAEJSEAClRHgtTa3hJ1bWYkWJAEJ5EpAwapgzTU2s/BrtfDisbBTs/BGJyQgAQlIQAL1ILB084HxJfWorrWUgARaEFCwKli9QFoQmDu2TQhbXUoSkIAEJCABCVRGgNfJbRW2QWUlWpAEJJArAQWrgjXX2NQvCUhAAhKQgAQkIAEJSKDmBBSsCtaaXwJWXwISkIAEJCABCUhAAhLIlYCCVcGaa2xm4ddU4cVMYaOy8EYnJCABCUhAAvUgMGVUc8awGepRXWspAQm0IKBgVbB6gbQgsEhs+2TY1lKSgAQkIAEJSKAyAvNGSQeHfaSyEi1IAhLIlYCCVcGaa2xm4deq4cUjYSdl4Y1OSEACEpCABOpBYGxU856wi+pRXWspAQm0IKBgVbB6gbQgsEpsezDsBClJQAISkIAEJFAZAQTrHWETKyvRgiQggVwJKFgVrLnGZhZ+0WBeELZXFt7ohAQkIAEJSKAeBBaOap4Vdmg9qmstJSCBFgQUrApWL5AWBFjwYdmwBaUkAQlIQAISkEBlBFjskIfGYyor0YIkIIFcCShYFay5xqZ+SUACEpCABCQgAQlIQAI1J6BgVbDW/BKw+hKQgAQkIAEJSEACEpBArgQUrArWXGMzC79mCS9WC1s8C290QgISkIAEJFAPArx/lYUPl65Hda2lBCTQgoCCVcHqBdKCwPKx7Zqwj0tJAhKQgAQkIIHKCCwaJX0+7MTKSrQgCUggVwIKVgVrrrGZhV8rhxf3hx2bhTc6IQEJSEACEqgHgaWimreEnVuP6lpLCUigBQEFq4LVC6QFAYYDPxZ2ipQkIAEJSEACEqiMAEOB7wu7pLISLUgCEsiVgIJVwZprbGbhF++BOzRsyyy80QkJSEACEpBAPQjME9X8WNhO9aiutZSABFoQULAqWL1AJCABCUhAAhKQgAQkIAEJZElAwapgzTIwdUoCEpCABCQgAQlIQAISkICCVcHqVdCCwBSxbZqwqaUkAQlIQAISkEBlBGx/K0NtQRLInoCCVcGafZCOpIPzReG7hq0/kk5YtgQkIAEJSKBmBOaI+u4YtmnN6m11JSCB/yWgYFWwel20IMBLyx8O8z1whokEJCABCUigOgJjo6g7wy6orkhLkoAEMiWgYFWwZhqaebiFYH0g7Pg83NELCUhAAhKQQC0I8B7W28POr0VtraQEJNCKgIJVweoV0oLAcrHtS2EsrW+SgAQkIAEJSKAaAotGMZeGHVdNcZYiAQlkTEDBqmDNODxH3rXR4cJ6YbzA3CQBCUhAAhKQQDUEZopi1g5bsZriLEUCEsiYgIJVwZpxeOqaBCQgAQlIQAISkIAEJFBnAgpWBWud49+6S0ACEpCABCQgAQlIQAIZE1CwKlgzDs+Rd21UuLBI2Jwj74oeSEACEpCABGpDYNqo6UJh89amxlZUAhLoi4CCVcHq1dGCAHNXWfRhXylJQAISkIAEJFAZgYWjpPPCjqisRAuSgARyJaBgVbDmGptZ+LVyeHFv2LFZeKMTEpCABCQggXoQ4LU2N4edU4/qWksJSKAFAQWrgtULpAWBVWPb18JOkpIEJCABCUhAApURGBsl3RV2YWUlWpAEJJArAQWrgjXX2MzCL57w8tLyPbLwRickIAEJSEAC9SDAkODPhB1Sj+paSwlIoAUBBauC1QtEAhKQgAQkIAEJSEACEpBAlgQUrArWLANTpyQgAQlIQAISkIAEJCABCShYFaxeBf0QmDK2TyElCUhAAhKQgAQqI0C7O03Y1JWVaEESkECuBBSsCtZcYzMLv2YPL94ftkIW3uiEBCQgAQlIoB4ERkc1twrboB7VtZYSkEALAgpWBasXSAsC42Lb3WFHS0kCEpCABCQggcoIsOjhbWG8i9UkAQnUm4CCVcFa7yugn9rzHtYHwo6XkgQkIAEJSEAClRFYLEq6MuyUykq0IAlIIFcCClYFa66xmYVfK4YXvLj8sCy80QkJSEACEpBAPQjMGNXkXejL1qO61lICEmhBQMGqYPUCaUFgrtg2IWx1KUlAAhKQgAQkIAEJSEAClRNQsCpYKw+6TivQFYI77YzprwQkIAEJSEACEpBAtxBQsCpYuyWWrYcEJCABCUhAAhKQgAQk0GUEFKwK1i4L6fZWZ6rIbqawUe3N1twkIAEJSEACEpCABCQggQEQULAqWAcQJvXdZfGo+hlhXCgmCUhAAhKQgAQkIAEJSKBaAgpWBWu1EddhpY0Lf+8J8z2sHXbidFcCEpCABCQgAQlIoCsIKFgVrF0RyMNViVUiY9/DOlx0zVcCEpCABCQgAQlIQAKtCShYFaxeIy0IrBDbrgv7hJQkIAEJSEACEpCABCQggcoJKFgVrJUHXScVOHU4O3PY9J3ktL5KQAISkIAEJCABCUigSwgoWBWsXRLKVkMCEpCABCQgAQlIQAIS6DYCClYFa7fFtPWRgAQkIAEJSEACEpCABLqEgIJVwdoloWw1JCABCUhAAhKQgAQkIIFuI6BgVbB2W0xbHwlIQAISkIAEJCABCUigSwgoWBWsXRLKVkMCEpCABCQgAQlIQAIS6DYCClYFa7fFtPWRgAQkIAEJSEACEpCABLqEgIJVwdoloWw1JCABCUhAAhKQgAQkIIFuI6BgVbB2W0xbHwlIQAISkIAEJCABCUigSwgoWBWsXRLKVkMCEpCABCQgAQlIQAIS6DYCClYFa7fFtPWRgAQkIAEJSEACEpCABLqEgIJVwdoloWw1JCABCUhAAhKQgAQkIIFuI6BgVbB2W0xbHwlIQAISkIAEJCABCUigSwgoWBWsXRLKVkMCEpCABCQgAQlIQAIS6DYCClYFa7fFtPWRgAQkIAEJSEACEpCABLqEgIJVwdoloWw1JCABCUhAAhKQgAQkIIFuI6BgVbB2W0xbHwlIQAISkIAEJCABCUigSwgoWBWsXRLKVkMCEpCABCQgAQlIQAIS6DYCClYFa7fFtPWRgAQkIAEJSEACEpCABLqEgIJVwdoloWw1JCABCUhAAhKQgAQkIIFuI6BgVbB2W0xbHwlIQAISkIAEJCABCUigSwgoWBWsXRLKVkMCEpCABCQgAQlIQAIS6DYCClYFa7fFtPWRgAQkIAEJSEACEpCABLqEgIJVwdoloWw1JCABCUhAAhKQgAQkIIFuI6BgVbB2W0xbHwlIQAISkIAEJCABCUigSwgoWBWsXRLKVkMCEpCABCQgAQlIQAIS6DYCClYFa7fFtPWRgAQkIAEJSEACEpCABLqEgIJVwdoloWw1JCABCUhAAhKQgAQkIIFuI6BgjTO6ebedVesjAQlIQAISkIAEJCABCUigCwhsH3V4MGzLLqjLoKuwcBzxRtglYXuH7afJwBgwBowBY8AYMAaMAWPAGDAGjIFsYuBTcS7urLNgvTcq/3gYf+/XZGAMGAPGgDFgDBgDxoAxYAwYA8ZANjFwR5yLr4Z9cNDdk11wwIxRh5XDxodtqMnAGDAGjAFjwBgwBowBY8AYMAaMgexiYOM4J4yONUlAAhKQgAQkIAEJSEACEpCABCQgAQlIQAISkIAEJCABCUhAAhKQgAQkIAEJSEACEpCABCQgAQlIQAISkIAEJCABCUhAAhKQgAQkIAEJSEACEpCABCQgAQlIQAISkIAEJCABCUhAAhKQgAQkIAEJSEACEpCABCQgAQlIQAISkIAEJCABCUhAAhKQgAQkIAEJSEACEpCABCQgAQlIQAISkIAEJCABCUhAAhKQgAQkIAEJSEACEpCABCQgAQlIQAISkIAEJCABCUhAAhKQgAQkIAEJSEACEpCABCQgAQlIQAISkIAEJCABCUhAAhKQgAQkIAEJSEACEpCABCQgAQlIQAISkIAEJCABCUhAAhKQgAQkIAEJSEACEpCABCQgAQlIQAISkIAEJCABCUhAAhKQgAQkIAEJSEACEpCABCQgAQlIQAISkIAEJCABCUhAAhKQgAQkIAEJSEACEpCABCQgAQlIQAISkIAEJCABCUhAAhKQgAQkIAEJSEACEpCABCQgAQlIQAISkIAEJCABCUhAAhKQgAQkIAEJSEACEpCABCQgAQlIQAISkIAEJCABCUhAAhKQgAQkIAEJSEACEpCABCQgAQlIQAISkIAEJCABCUhAAhKQgAQkIAEJSEACEpCABCQgAQlIQAISkIAEJCABCUhAAhKQgAQkIAEJSEACEpCABCQgAQlIQAISkIAEJCABCUhAAhKQgAQkIAEJSEACEpCABCQgAQlIQAISkIAEJCABCUhAAhKQgAQkIAEJSEACEpCABCQgAQlIQAISkIAEJCABCUhAAhKQgAQkIAEJSEACEpCABCQgAQlIQAISkIAEJCABCUhAAhKQgAQkIAEJSEACEpCABCQgAQlIQAISkIAEJCABCUhAAhKQgAQkIAEJSEACEpCABCQgAQlIQAISkIAEJCABCUhAAhKQgAQkIAEJSEACEpCABCQgAQlIQAISkIAEJCABCUhAAhKQgAQkIAEJSEACEpCABCQgAQlIQAISkIAEJCABCUhAAhKQgAQkIAEJSEACEpCABCQgAQlIQAISkIAEJCABCUhAAhKQgAQkIAEJSEACEpCABCQgAQlIQAISkIAEJCABCUhAAhKQgAQkIAEJSEACEpCABCQgAQlIQAISkIAEJCABCUhAAhKQgAQkIAEJSEACEpCABCQgAQlIQAISkIAEJCABCUhAAhKQgAQkIAEJSEACEpCABCQgAQlIQAISkIAEJCABCUhAAhKQgAQkIAEJSEACEpCABCQgAQlIQAISkIAEJCABCUhAAhKQgAQkIAEJSEACEpCABCQgAQlIQAJlAv8XRZDuu+zmr30AAAAASUVORK5CYII=;fontStyle=2" vertex="1" parent="1">
                    <mxGeometry x="120" y="420" width="940" height="815" as="geometry"/>
                </mxCell>
                <mxCell id="16" value="&lt;font color=&quot;#000000&quot;&gt;Poster une offre&lt;/font&gt;" style="rounded=1;whiteSpace=wrap;html=1;fontFamily=Times New Roman;fontSize=14;fontColor=default;strokeColor=#FFFFFF;fillColor=#FFFFFF;fontStyle=2;labelBackgroundColor=none;" vertex="1" parent="1">
                    <mxGeometry x="135" y="438" width="235" height="17" as="geometry"/>
                </mxCell>
            </root>
        </mxGraphModel>
    </diagram>
</mxfile>